G75*
G70*
%OFA0B0*%
%FSLAX24Y24*%
%IPPOS*%
%LPD*%
%AMOC8*
5,1,8,0,0,1.08239X$1,22.5*
%
%ADD10C,0.0000*%
D10*
X000181Y000181D02*
X000181Y039551D01*
X063174Y039551D01*
X063174Y000181D01*
X000181Y000181D01*
X002307Y002544D02*
X002309Y002594D01*
X002315Y002644D01*
X002325Y002693D01*
X002339Y002741D01*
X002356Y002788D01*
X002377Y002833D01*
X002402Y002877D01*
X002430Y002918D01*
X002462Y002957D01*
X002496Y002994D01*
X002533Y003028D01*
X002573Y003058D01*
X002615Y003085D01*
X002659Y003109D01*
X002705Y003130D01*
X002752Y003146D01*
X002800Y003159D01*
X002850Y003168D01*
X002899Y003173D01*
X002950Y003174D01*
X003000Y003171D01*
X003049Y003164D01*
X003098Y003153D01*
X003146Y003138D01*
X003192Y003120D01*
X003237Y003098D01*
X003280Y003072D01*
X003321Y003043D01*
X003360Y003011D01*
X003396Y002976D01*
X003428Y002938D01*
X003458Y002898D01*
X003485Y002855D01*
X003508Y002811D01*
X003527Y002765D01*
X003543Y002717D01*
X003555Y002668D01*
X003563Y002619D01*
X003567Y002569D01*
X003567Y002519D01*
X003563Y002469D01*
X003555Y002420D01*
X003543Y002371D01*
X003527Y002323D01*
X003508Y002277D01*
X003485Y002233D01*
X003458Y002190D01*
X003428Y002150D01*
X003396Y002112D01*
X003360Y002077D01*
X003321Y002045D01*
X003280Y002016D01*
X003237Y001990D01*
X003192Y001968D01*
X003146Y001950D01*
X003098Y001935D01*
X003049Y001924D01*
X003000Y001917D01*
X002950Y001914D01*
X002899Y001915D01*
X002850Y001920D01*
X002800Y001929D01*
X002752Y001942D01*
X002705Y001958D01*
X002659Y001979D01*
X002615Y002003D01*
X002573Y002030D01*
X002533Y002060D01*
X002496Y002094D01*
X002462Y002131D01*
X002430Y002170D01*
X002402Y002211D01*
X002377Y002255D01*
X002356Y002300D01*
X002339Y002347D01*
X002325Y002395D01*
X002315Y002444D01*
X002309Y002494D01*
X002307Y002544D01*
X045988Y004581D02*
X045990Y004631D01*
X045996Y004681D01*
X046006Y004731D01*
X046019Y004779D01*
X046036Y004827D01*
X046057Y004873D01*
X046081Y004917D01*
X046109Y004959D01*
X046140Y004999D01*
X046174Y005036D01*
X046211Y005071D01*
X046250Y005102D01*
X046291Y005131D01*
X046335Y005156D01*
X046381Y005178D01*
X046428Y005196D01*
X046476Y005210D01*
X046525Y005221D01*
X046575Y005228D01*
X046625Y005231D01*
X046676Y005230D01*
X046726Y005225D01*
X046776Y005216D01*
X046824Y005204D01*
X046872Y005187D01*
X046918Y005167D01*
X046963Y005144D01*
X047006Y005117D01*
X047046Y005087D01*
X047084Y005054D01*
X047119Y005018D01*
X047152Y004979D01*
X047181Y004938D01*
X047207Y004895D01*
X047230Y004850D01*
X047249Y004803D01*
X047264Y004755D01*
X047276Y004706D01*
X047284Y004656D01*
X047288Y004606D01*
X047288Y004556D01*
X047284Y004506D01*
X047276Y004456D01*
X047264Y004407D01*
X047249Y004359D01*
X047230Y004312D01*
X047207Y004267D01*
X047181Y004224D01*
X047152Y004183D01*
X047119Y004144D01*
X047084Y004108D01*
X047046Y004075D01*
X047006Y004045D01*
X046963Y004018D01*
X046918Y003995D01*
X046872Y003975D01*
X046824Y003958D01*
X046776Y003946D01*
X046726Y003937D01*
X046676Y003932D01*
X046625Y003931D01*
X046575Y003934D01*
X046525Y003941D01*
X046476Y003952D01*
X046428Y003966D01*
X046381Y003984D01*
X046335Y004006D01*
X046291Y004031D01*
X046250Y004060D01*
X046211Y004091D01*
X046174Y004126D01*
X046140Y004163D01*
X046109Y004203D01*
X046081Y004245D01*
X046057Y004289D01*
X046036Y004335D01*
X046019Y004383D01*
X046006Y004431D01*
X045996Y004481D01*
X045990Y004531D01*
X045988Y004581D01*
X060181Y002544D02*
X060183Y002594D01*
X060189Y002644D01*
X060199Y002693D01*
X060213Y002741D01*
X060230Y002788D01*
X060251Y002833D01*
X060276Y002877D01*
X060304Y002918D01*
X060336Y002957D01*
X060370Y002994D01*
X060407Y003028D01*
X060447Y003058D01*
X060489Y003085D01*
X060533Y003109D01*
X060579Y003130D01*
X060626Y003146D01*
X060674Y003159D01*
X060724Y003168D01*
X060773Y003173D01*
X060824Y003174D01*
X060874Y003171D01*
X060923Y003164D01*
X060972Y003153D01*
X061020Y003138D01*
X061066Y003120D01*
X061111Y003098D01*
X061154Y003072D01*
X061195Y003043D01*
X061234Y003011D01*
X061270Y002976D01*
X061302Y002938D01*
X061332Y002898D01*
X061359Y002855D01*
X061382Y002811D01*
X061401Y002765D01*
X061417Y002717D01*
X061429Y002668D01*
X061437Y002619D01*
X061441Y002569D01*
X061441Y002519D01*
X061437Y002469D01*
X061429Y002420D01*
X061417Y002371D01*
X061401Y002323D01*
X061382Y002277D01*
X061359Y002233D01*
X061332Y002190D01*
X061302Y002150D01*
X061270Y002112D01*
X061234Y002077D01*
X061195Y002045D01*
X061154Y002016D01*
X061111Y001990D01*
X061066Y001968D01*
X061020Y001950D01*
X060972Y001935D01*
X060923Y001924D01*
X060874Y001917D01*
X060824Y001914D01*
X060773Y001915D01*
X060724Y001920D01*
X060674Y001929D01*
X060626Y001942D01*
X060579Y001958D01*
X060533Y001979D01*
X060489Y002003D01*
X060447Y002030D01*
X060407Y002060D01*
X060370Y002094D01*
X060336Y002131D01*
X060304Y002170D01*
X060276Y002211D01*
X060251Y002255D01*
X060230Y002300D01*
X060213Y002347D01*
X060199Y002395D01*
X060189Y002444D01*
X060183Y002494D01*
X060181Y002544D01*
X045988Y034365D02*
X045990Y034415D01*
X045996Y034465D01*
X046006Y034515D01*
X046019Y034563D01*
X046036Y034611D01*
X046057Y034657D01*
X046081Y034701D01*
X046109Y034743D01*
X046140Y034783D01*
X046174Y034820D01*
X046211Y034855D01*
X046250Y034886D01*
X046291Y034915D01*
X046335Y034940D01*
X046381Y034962D01*
X046428Y034980D01*
X046476Y034994D01*
X046525Y035005D01*
X046575Y035012D01*
X046625Y035015D01*
X046676Y035014D01*
X046726Y035009D01*
X046776Y035000D01*
X046824Y034988D01*
X046872Y034971D01*
X046918Y034951D01*
X046963Y034928D01*
X047006Y034901D01*
X047046Y034871D01*
X047084Y034838D01*
X047119Y034802D01*
X047152Y034763D01*
X047181Y034722D01*
X047207Y034679D01*
X047230Y034634D01*
X047249Y034587D01*
X047264Y034539D01*
X047276Y034490D01*
X047284Y034440D01*
X047288Y034390D01*
X047288Y034340D01*
X047284Y034290D01*
X047276Y034240D01*
X047264Y034191D01*
X047249Y034143D01*
X047230Y034096D01*
X047207Y034051D01*
X047181Y034008D01*
X047152Y033967D01*
X047119Y033928D01*
X047084Y033892D01*
X047046Y033859D01*
X047006Y033829D01*
X046963Y033802D01*
X046918Y033779D01*
X046872Y033759D01*
X046824Y033742D01*
X046776Y033730D01*
X046726Y033721D01*
X046676Y033716D01*
X046625Y033715D01*
X046575Y033718D01*
X046525Y033725D01*
X046476Y033736D01*
X046428Y033750D01*
X046381Y033768D01*
X046335Y033790D01*
X046291Y033815D01*
X046250Y033844D01*
X046211Y033875D01*
X046174Y033910D01*
X046140Y033947D01*
X046109Y033987D01*
X046081Y034029D01*
X046057Y034073D01*
X046036Y034119D01*
X046019Y034167D01*
X046006Y034215D01*
X045996Y034265D01*
X045990Y034315D01*
X045988Y034365D01*
X060181Y037189D02*
X060183Y037239D01*
X060189Y037289D01*
X060199Y037338D01*
X060213Y037386D01*
X060230Y037433D01*
X060251Y037478D01*
X060276Y037522D01*
X060304Y037563D01*
X060336Y037602D01*
X060370Y037639D01*
X060407Y037673D01*
X060447Y037703D01*
X060489Y037730D01*
X060533Y037754D01*
X060579Y037775D01*
X060626Y037791D01*
X060674Y037804D01*
X060724Y037813D01*
X060773Y037818D01*
X060824Y037819D01*
X060874Y037816D01*
X060923Y037809D01*
X060972Y037798D01*
X061020Y037783D01*
X061066Y037765D01*
X061111Y037743D01*
X061154Y037717D01*
X061195Y037688D01*
X061234Y037656D01*
X061270Y037621D01*
X061302Y037583D01*
X061332Y037543D01*
X061359Y037500D01*
X061382Y037456D01*
X061401Y037410D01*
X061417Y037362D01*
X061429Y037313D01*
X061437Y037264D01*
X061441Y037214D01*
X061441Y037164D01*
X061437Y037114D01*
X061429Y037065D01*
X061417Y037016D01*
X061401Y036968D01*
X061382Y036922D01*
X061359Y036878D01*
X061332Y036835D01*
X061302Y036795D01*
X061270Y036757D01*
X061234Y036722D01*
X061195Y036690D01*
X061154Y036661D01*
X061111Y036635D01*
X061066Y036613D01*
X061020Y036595D01*
X060972Y036580D01*
X060923Y036569D01*
X060874Y036562D01*
X060824Y036559D01*
X060773Y036560D01*
X060724Y036565D01*
X060674Y036574D01*
X060626Y036587D01*
X060579Y036603D01*
X060533Y036624D01*
X060489Y036648D01*
X060447Y036675D01*
X060407Y036705D01*
X060370Y036739D01*
X060336Y036776D01*
X060304Y036815D01*
X060276Y036856D01*
X060251Y036900D01*
X060230Y036945D01*
X060213Y036992D01*
X060199Y037040D01*
X060189Y037089D01*
X060183Y037139D01*
X060181Y037189D01*
X001520Y037189D02*
X001522Y037239D01*
X001528Y037289D01*
X001538Y037338D01*
X001552Y037386D01*
X001569Y037433D01*
X001590Y037478D01*
X001615Y037522D01*
X001643Y037563D01*
X001675Y037602D01*
X001709Y037639D01*
X001746Y037673D01*
X001786Y037703D01*
X001828Y037730D01*
X001872Y037754D01*
X001918Y037775D01*
X001965Y037791D01*
X002013Y037804D01*
X002063Y037813D01*
X002112Y037818D01*
X002163Y037819D01*
X002213Y037816D01*
X002262Y037809D01*
X002311Y037798D01*
X002359Y037783D01*
X002405Y037765D01*
X002450Y037743D01*
X002493Y037717D01*
X002534Y037688D01*
X002573Y037656D01*
X002609Y037621D01*
X002641Y037583D01*
X002671Y037543D01*
X002698Y037500D01*
X002721Y037456D01*
X002740Y037410D01*
X002756Y037362D01*
X002768Y037313D01*
X002776Y037264D01*
X002780Y037214D01*
X002780Y037164D01*
X002776Y037114D01*
X002768Y037065D01*
X002756Y037016D01*
X002740Y036968D01*
X002721Y036922D01*
X002698Y036878D01*
X002671Y036835D01*
X002641Y036795D01*
X002609Y036757D01*
X002573Y036722D01*
X002534Y036690D01*
X002493Y036661D01*
X002450Y036635D01*
X002405Y036613D01*
X002359Y036595D01*
X002311Y036580D01*
X002262Y036569D01*
X002213Y036562D01*
X002163Y036559D01*
X002112Y036560D01*
X002063Y036565D01*
X002013Y036574D01*
X001965Y036587D01*
X001918Y036603D01*
X001872Y036624D01*
X001828Y036648D01*
X001786Y036675D01*
X001746Y036705D01*
X001709Y036739D01*
X001675Y036776D01*
X001643Y036815D01*
X001615Y036856D01*
X001590Y036900D01*
X001569Y036945D01*
X001552Y036992D01*
X001538Y037040D01*
X001528Y037089D01*
X001522Y037139D01*
X001520Y037189D01*
M02*
