G75*
G70*
%OFA0B0*%
%FSLAX24Y24*%
%IPPOS*%
%LPD*%
%AMOC8*
5,1,8,0,0,1.08239X$1,22.5*
%
%ADD10C,0.0000*%
%ADD11C,0.0100*%
%ADD12C,0.0070*%
%ADD13C,0.0060*%
%ADD14C,0.0020*%
%ADD15R,0.0250X0.0450*%
%ADD16R,0.0250X0.1600*%
%ADD17R,0.4000X0.0200*%
%ADD18R,0.1550X0.0050*%
%ADD19R,0.1900X0.0200*%
%ADD20C,0.0080*%
%ADD21C,0.0010*%
%ADD22C,0.0050*%
%ADD23R,0.1000X0.0250*%
%ADD24R,0.0240X0.0340*%
%ADD25R,0.0300X0.0250*%
%ADD26R,0.0500X0.1100*%
%ADD27R,0.0750X0.7000*%
%ADD28R,0.0750X0.2000*%
D10*
X000181Y000181D02*
X000181Y039551D01*
X063174Y039551D01*
X063174Y000181D01*
X000181Y000181D01*
X002307Y002544D02*
X002309Y002594D01*
X002315Y002644D01*
X002325Y002693D01*
X002339Y002741D01*
X002356Y002788D01*
X002377Y002833D01*
X002402Y002877D01*
X002430Y002918D01*
X002462Y002957D01*
X002496Y002994D01*
X002533Y003028D01*
X002573Y003058D01*
X002615Y003085D01*
X002659Y003109D01*
X002705Y003130D01*
X002752Y003146D01*
X002800Y003159D01*
X002850Y003168D01*
X002899Y003173D01*
X002950Y003174D01*
X003000Y003171D01*
X003049Y003164D01*
X003098Y003153D01*
X003146Y003138D01*
X003192Y003120D01*
X003237Y003098D01*
X003280Y003072D01*
X003321Y003043D01*
X003360Y003011D01*
X003396Y002976D01*
X003428Y002938D01*
X003458Y002898D01*
X003485Y002855D01*
X003508Y002811D01*
X003527Y002765D01*
X003543Y002717D01*
X003555Y002668D01*
X003563Y002619D01*
X003567Y002569D01*
X003567Y002519D01*
X003563Y002469D01*
X003555Y002420D01*
X003543Y002371D01*
X003527Y002323D01*
X003508Y002277D01*
X003485Y002233D01*
X003458Y002190D01*
X003428Y002150D01*
X003396Y002112D01*
X003360Y002077D01*
X003321Y002045D01*
X003280Y002016D01*
X003237Y001990D01*
X003192Y001968D01*
X003146Y001950D01*
X003098Y001935D01*
X003049Y001924D01*
X003000Y001917D01*
X002950Y001914D01*
X002899Y001915D01*
X002850Y001920D01*
X002800Y001929D01*
X002752Y001942D01*
X002705Y001958D01*
X002659Y001979D01*
X002615Y002003D01*
X002573Y002030D01*
X002533Y002060D01*
X002496Y002094D01*
X002462Y002131D01*
X002430Y002170D01*
X002402Y002211D01*
X002377Y002255D01*
X002356Y002300D01*
X002339Y002347D01*
X002325Y002395D01*
X002315Y002444D01*
X002309Y002494D01*
X002307Y002544D01*
X045988Y004581D02*
X045990Y004631D01*
X045996Y004681D01*
X046006Y004731D01*
X046019Y004779D01*
X046036Y004827D01*
X046057Y004873D01*
X046081Y004917D01*
X046109Y004959D01*
X046140Y004999D01*
X046174Y005036D01*
X046211Y005071D01*
X046250Y005102D01*
X046291Y005131D01*
X046335Y005156D01*
X046381Y005178D01*
X046428Y005196D01*
X046476Y005210D01*
X046525Y005221D01*
X046575Y005228D01*
X046625Y005231D01*
X046676Y005230D01*
X046726Y005225D01*
X046776Y005216D01*
X046824Y005204D01*
X046872Y005187D01*
X046918Y005167D01*
X046963Y005144D01*
X047006Y005117D01*
X047046Y005087D01*
X047084Y005054D01*
X047119Y005018D01*
X047152Y004979D01*
X047181Y004938D01*
X047207Y004895D01*
X047230Y004850D01*
X047249Y004803D01*
X047264Y004755D01*
X047276Y004706D01*
X047284Y004656D01*
X047288Y004606D01*
X047288Y004556D01*
X047284Y004506D01*
X047276Y004456D01*
X047264Y004407D01*
X047249Y004359D01*
X047230Y004312D01*
X047207Y004267D01*
X047181Y004224D01*
X047152Y004183D01*
X047119Y004144D01*
X047084Y004108D01*
X047046Y004075D01*
X047006Y004045D01*
X046963Y004018D01*
X046918Y003995D01*
X046872Y003975D01*
X046824Y003958D01*
X046776Y003946D01*
X046726Y003937D01*
X046676Y003932D01*
X046625Y003931D01*
X046575Y003934D01*
X046525Y003941D01*
X046476Y003952D01*
X046428Y003966D01*
X046381Y003984D01*
X046335Y004006D01*
X046291Y004031D01*
X046250Y004060D01*
X046211Y004091D01*
X046174Y004126D01*
X046140Y004163D01*
X046109Y004203D01*
X046081Y004245D01*
X046057Y004289D01*
X046036Y004335D01*
X046019Y004383D01*
X046006Y004431D01*
X045996Y004481D01*
X045990Y004531D01*
X045988Y004581D01*
X060181Y002544D02*
X060183Y002594D01*
X060189Y002644D01*
X060199Y002693D01*
X060213Y002741D01*
X060230Y002788D01*
X060251Y002833D01*
X060276Y002877D01*
X060304Y002918D01*
X060336Y002957D01*
X060370Y002994D01*
X060407Y003028D01*
X060447Y003058D01*
X060489Y003085D01*
X060533Y003109D01*
X060579Y003130D01*
X060626Y003146D01*
X060674Y003159D01*
X060724Y003168D01*
X060773Y003173D01*
X060824Y003174D01*
X060874Y003171D01*
X060923Y003164D01*
X060972Y003153D01*
X061020Y003138D01*
X061066Y003120D01*
X061111Y003098D01*
X061154Y003072D01*
X061195Y003043D01*
X061234Y003011D01*
X061270Y002976D01*
X061302Y002938D01*
X061332Y002898D01*
X061359Y002855D01*
X061382Y002811D01*
X061401Y002765D01*
X061417Y002717D01*
X061429Y002668D01*
X061437Y002619D01*
X061441Y002569D01*
X061441Y002519D01*
X061437Y002469D01*
X061429Y002420D01*
X061417Y002371D01*
X061401Y002323D01*
X061382Y002277D01*
X061359Y002233D01*
X061332Y002190D01*
X061302Y002150D01*
X061270Y002112D01*
X061234Y002077D01*
X061195Y002045D01*
X061154Y002016D01*
X061111Y001990D01*
X061066Y001968D01*
X061020Y001950D01*
X060972Y001935D01*
X060923Y001924D01*
X060874Y001917D01*
X060824Y001914D01*
X060773Y001915D01*
X060724Y001920D01*
X060674Y001929D01*
X060626Y001942D01*
X060579Y001958D01*
X060533Y001979D01*
X060489Y002003D01*
X060447Y002030D01*
X060407Y002060D01*
X060370Y002094D01*
X060336Y002131D01*
X060304Y002170D01*
X060276Y002211D01*
X060251Y002255D01*
X060230Y002300D01*
X060213Y002347D01*
X060199Y002395D01*
X060189Y002444D01*
X060183Y002494D01*
X060181Y002544D01*
X045988Y034365D02*
X045990Y034415D01*
X045996Y034465D01*
X046006Y034515D01*
X046019Y034563D01*
X046036Y034611D01*
X046057Y034657D01*
X046081Y034701D01*
X046109Y034743D01*
X046140Y034783D01*
X046174Y034820D01*
X046211Y034855D01*
X046250Y034886D01*
X046291Y034915D01*
X046335Y034940D01*
X046381Y034962D01*
X046428Y034980D01*
X046476Y034994D01*
X046525Y035005D01*
X046575Y035012D01*
X046625Y035015D01*
X046676Y035014D01*
X046726Y035009D01*
X046776Y035000D01*
X046824Y034988D01*
X046872Y034971D01*
X046918Y034951D01*
X046963Y034928D01*
X047006Y034901D01*
X047046Y034871D01*
X047084Y034838D01*
X047119Y034802D01*
X047152Y034763D01*
X047181Y034722D01*
X047207Y034679D01*
X047230Y034634D01*
X047249Y034587D01*
X047264Y034539D01*
X047276Y034490D01*
X047284Y034440D01*
X047288Y034390D01*
X047288Y034340D01*
X047284Y034290D01*
X047276Y034240D01*
X047264Y034191D01*
X047249Y034143D01*
X047230Y034096D01*
X047207Y034051D01*
X047181Y034008D01*
X047152Y033967D01*
X047119Y033928D01*
X047084Y033892D01*
X047046Y033859D01*
X047006Y033829D01*
X046963Y033802D01*
X046918Y033779D01*
X046872Y033759D01*
X046824Y033742D01*
X046776Y033730D01*
X046726Y033721D01*
X046676Y033716D01*
X046625Y033715D01*
X046575Y033718D01*
X046525Y033725D01*
X046476Y033736D01*
X046428Y033750D01*
X046381Y033768D01*
X046335Y033790D01*
X046291Y033815D01*
X046250Y033844D01*
X046211Y033875D01*
X046174Y033910D01*
X046140Y033947D01*
X046109Y033987D01*
X046081Y034029D01*
X046057Y034073D01*
X046036Y034119D01*
X046019Y034167D01*
X046006Y034215D01*
X045996Y034265D01*
X045990Y034315D01*
X045988Y034365D01*
X060181Y037189D02*
X060183Y037239D01*
X060189Y037289D01*
X060199Y037338D01*
X060213Y037386D01*
X060230Y037433D01*
X060251Y037478D01*
X060276Y037522D01*
X060304Y037563D01*
X060336Y037602D01*
X060370Y037639D01*
X060407Y037673D01*
X060447Y037703D01*
X060489Y037730D01*
X060533Y037754D01*
X060579Y037775D01*
X060626Y037791D01*
X060674Y037804D01*
X060724Y037813D01*
X060773Y037818D01*
X060824Y037819D01*
X060874Y037816D01*
X060923Y037809D01*
X060972Y037798D01*
X061020Y037783D01*
X061066Y037765D01*
X061111Y037743D01*
X061154Y037717D01*
X061195Y037688D01*
X061234Y037656D01*
X061270Y037621D01*
X061302Y037583D01*
X061332Y037543D01*
X061359Y037500D01*
X061382Y037456D01*
X061401Y037410D01*
X061417Y037362D01*
X061429Y037313D01*
X061437Y037264D01*
X061441Y037214D01*
X061441Y037164D01*
X061437Y037114D01*
X061429Y037065D01*
X061417Y037016D01*
X061401Y036968D01*
X061382Y036922D01*
X061359Y036878D01*
X061332Y036835D01*
X061302Y036795D01*
X061270Y036757D01*
X061234Y036722D01*
X061195Y036690D01*
X061154Y036661D01*
X061111Y036635D01*
X061066Y036613D01*
X061020Y036595D01*
X060972Y036580D01*
X060923Y036569D01*
X060874Y036562D01*
X060824Y036559D01*
X060773Y036560D01*
X060724Y036565D01*
X060674Y036574D01*
X060626Y036587D01*
X060579Y036603D01*
X060533Y036624D01*
X060489Y036648D01*
X060447Y036675D01*
X060407Y036705D01*
X060370Y036739D01*
X060336Y036776D01*
X060304Y036815D01*
X060276Y036856D01*
X060251Y036900D01*
X060230Y036945D01*
X060213Y036992D01*
X060199Y037040D01*
X060189Y037089D01*
X060183Y037139D01*
X060181Y037189D01*
X001520Y037189D02*
X001522Y037239D01*
X001528Y037289D01*
X001538Y037338D01*
X001552Y037386D01*
X001569Y037433D01*
X001590Y037478D01*
X001615Y037522D01*
X001643Y037563D01*
X001675Y037602D01*
X001709Y037639D01*
X001746Y037673D01*
X001786Y037703D01*
X001828Y037730D01*
X001872Y037754D01*
X001918Y037775D01*
X001965Y037791D01*
X002013Y037804D01*
X002063Y037813D01*
X002112Y037818D01*
X002163Y037819D01*
X002213Y037816D01*
X002262Y037809D01*
X002311Y037798D01*
X002359Y037783D01*
X002405Y037765D01*
X002450Y037743D01*
X002493Y037717D01*
X002534Y037688D01*
X002573Y037656D01*
X002609Y037621D01*
X002641Y037583D01*
X002671Y037543D01*
X002698Y037500D01*
X002721Y037456D01*
X002740Y037410D01*
X002756Y037362D01*
X002768Y037313D01*
X002776Y037264D01*
X002780Y037214D01*
X002780Y037164D01*
X002776Y037114D01*
X002768Y037065D01*
X002756Y037016D01*
X002740Y036968D01*
X002721Y036922D01*
X002698Y036878D01*
X002671Y036835D01*
X002641Y036795D01*
X002609Y036757D01*
X002573Y036722D01*
X002534Y036690D01*
X002493Y036661D01*
X002450Y036635D01*
X002405Y036613D01*
X002359Y036595D01*
X002311Y036580D01*
X002262Y036569D01*
X002213Y036562D01*
X002163Y036559D01*
X002112Y036560D01*
X002063Y036565D01*
X002013Y036574D01*
X001965Y036587D01*
X001918Y036603D01*
X001872Y036624D01*
X001828Y036648D01*
X001786Y036675D01*
X001746Y036705D01*
X001709Y036739D01*
X001675Y036776D01*
X001643Y036815D01*
X001615Y036856D01*
X001590Y036900D01*
X001569Y036945D01*
X001552Y036992D01*
X001538Y037040D01*
X001528Y037089D01*
X001522Y037139D01*
X001520Y037189D01*
D11*
X009623Y032861D02*
X010224Y032861D01*
X009923Y032861D02*
X009923Y031960D01*
X010544Y031960D02*
X010544Y032861D01*
X010994Y032861D01*
X011144Y032710D01*
X011144Y032410D01*
X010994Y032260D01*
X010544Y032260D01*
X010844Y032260D02*
X011144Y031960D01*
X011465Y031960D02*
X012065Y031960D01*
X011765Y031960D02*
X011765Y032861D01*
X011465Y032560D01*
X009423Y030722D02*
X024798Y030722D01*
X024798Y008617D01*
X009423Y008617D01*
X009423Y030722D01*
X012561Y025766D02*
X021661Y025766D01*
X021687Y025764D01*
X021713Y025759D01*
X021738Y025751D01*
X021761Y025739D01*
X021783Y025725D01*
X021802Y025707D01*
X021820Y025688D01*
X021834Y025666D01*
X021846Y025643D01*
X021854Y025618D01*
X021859Y025592D01*
X021861Y025566D01*
X021861Y024566D01*
X021861Y023066D02*
X021861Y022566D01*
X021861Y021116D02*
X021861Y018616D01*
X021861Y017166D02*
X021861Y016666D01*
X021861Y015166D02*
X021861Y014166D01*
X021859Y014140D01*
X021854Y014114D01*
X021846Y014089D01*
X021834Y014066D01*
X021820Y014044D01*
X021802Y014025D01*
X021783Y014007D01*
X021761Y013993D01*
X021738Y013981D01*
X021713Y013973D01*
X021687Y013968D01*
X021661Y013966D01*
X012561Y013966D01*
X012535Y013968D01*
X012509Y013973D01*
X012484Y013981D01*
X012461Y013993D01*
X012439Y014007D01*
X012420Y014025D01*
X012402Y014044D01*
X012388Y014066D01*
X012376Y014089D01*
X012368Y014114D01*
X012363Y014140D01*
X012361Y014166D01*
X012361Y015066D01*
X014111Y016366D02*
X014113Y016397D01*
X014119Y016428D01*
X014129Y016458D01*
X014142Y016486D01*
X014159Y016513D01*
X014179Y016537D01*
X014202Y016559D01*
X014227Y016577D01*
X014255Y016592D01*
X014284Y016604D01*
X014314Y016612D01*
X014345Y016616D01*
X014377Y016616D01*
X014408Y016612D01*
X014438Y016604D01*
X014467Y016592D01*
X014495Y016577D01*
X014520Y016559D01*
X014543Y016537D01*
X014563Y016513D01*
X014580Y016486D01*
X014593Y016458D01*
X014603Y016428D01*
X014609Y016397D01*
X014611Y016366D01*
X014609Y016335D01*
X014603Y016304D01*
X014593Y016274D01*
X014580Y016246D01*
X014563Y016219D01*
X014543Y016195D01*
X014520Y016173D01*
X014495Y016155D01*
X014467Y016140D01*
X014438Y016128D01*
X014408Y016120D01*
X014377Y016116D01*
X014345Y016116D01*
X014314Y016120D01*
X014284Y016128D01*
X014255Y016140D01*
X014227Y016155D01*
X014202Y016173D01*
X014179Y016195D01*
X014159Y016219D01*
X014142Y016246D01*
X014129Y016274D01*
X014119Y016304D01*
X014113Y016335D01*
X014111Y016366D01*
X014611Y016366D02*
X015861Y016366D01*
X016611Y016366D01*
X016611Y023366D01*
X015861Y023366D01*
X015861Y016366D01*
X015261Y016716D02*
X015263Y016736D01*
X015269Y016754D01*
X015278Y016772D01*
X015290Y016787D01*
X015305Y016799D01*
X015323Y016808D01*
X015341Y016814D01*
X015361Y016816D01*
X015381Y016814D01*
X015399Y016808D01*
X015417Y016799D01*
X015432Y016787D01*
X015444Y016772D01*
X015453Y016754D01*
X015459Y016736D01*
X015461Y016716D01*
X015459Y016696D01*
X015453Y016678D01*
X015444Y016660D01*
X015432Y016645D01*
X015417Y016633D01*
X015399Y016624D01*
X015381Y016618D01*
X015361Y016616D01*
X015341Y016618D01*
X015323Y016624D01*
X015305Y016633D01*
X015290Y016645D01*
X015278Y016660D01*
X015269Y016678D01*
X015263Y016696D01*
X015261Y016716D01*
X017111Y016366D02*
X017111Y023366D01*
X017611Y023366D02*
X018361Y023366D01*
X019611Y023366D01*
X019613Y023397D01*
X019619Y023428D01*
X019629Y023458D01*
X019642Y023486D01*
X019659Y023513D01*
X019679Y023537D01*
X019702Y023559D01*
X019727Y023577D01*
X019755Y023592D01*
X019784Y023604D01*
X019814Y023612D01*
X019845Y023616D01*
X019877Y023616D01*
X019908Y023612D01*
X019938Y023604D01*
X019967Y023592D01*
X019995Y023577D01*
X020020Y023559D01*
X020043Y023537D01*
X020063Y023513D01*
X020080Y023486D01*
X020093Y023458D01*
X020103Y023428D01*
X020109Y023397D01*
X020111Y023366D01*
X020109Y023335D01*
X020103Y023304D01*
X020093Y023274D01*
X020080Y023246D01*
X020063Y023219D01*
X020043Y023195D01*
X020020Y023173D01*
X019995Y023155D01*
X019967Y023140D01*
X019938Y023128D01*
X019908Y023120D01*
X019877Y023116D01*
X019845Y023116D01*
X019814Y023120D01*
X019784Y023128D01*
X019755Y023140D01*
X019727Y023155D01*
X019702Y023173D01*
X019679Y023195D01*
X019659Y023219D01*
X019642Y023246D01*
X019629Y023274D01*
X019619Y023304D01*
X019613Y023335D01*
X019611Y023366D01*
X018361Y023366D02*
X018361Y021366D01*
X019611Y021366D01*
X019613Y021397D01*
X019619Y021428D01*
X019629Y021458D01*
X019642Y021486D01*
X019659Y021513D01*
X019679Y021537D01*
X019702Y021559D01*
X019727Y021577D01*
X019755Y021592D01*
X019784Y021604D01*
X019814Y021612D01*
X019845Y021616D01*
X019877Y021616D01*
X019908Y021612D01*
X019938Y021604D01*
X019967Y021592D01*
X019995Y021577D01*
X020020Y021559D01*
X020043Y021537D01*
X020063Y021513D01*
X020080Y021486D01*
X020093Y021458D01*
X020103Y021428D01*
X020109Y021397D01*
X020111Y021366D01*
X020109Y021335D01*
X020103Y021304D01*
X020093Y021274D01*
X020080Y021246D01*
X020063Y021219D01*
X020043Y021195D01*
X020020Y021173D01*
X019995Y021155D01*
X019967Y021140D01*
X019938Y021128D01*
X019908Y021120D01*
X019877Y021116D01*
X019845Y021116D01*
X019814Y021120D01*
X019784Y021128D01*
X019755Y021140D01*
X019727Y021155D01*
X019702Y021173D01*
X019679Y021195D01*
X019659Y021219D01*
X019642Y021246D01*
X019629Y021274D01*
X019619Y021304D01*
X019613Y021335D01*
X019611Y021366D01*
X018761Y021716D02*
X018763Y021736D01*
X018769Y021754D01*
X018778Y021772D01*
X018790Y021787D01*
X018805Y021799D01*
X018823Y021808D01*
X018841Y021814D01*
X018861Y021816D01*
X018881Y021814D01*
X018899Y021808D01*
X018917Y021799D01*
X018932Y021787D01*
X018944Y021772D01*
X018953Y021754D01*
X018959Y021736D01*
X018961Y021716D01*
X018959Y021696D01*
X018953Y021678D01*
X018944Y021660D01*
X018932Y021645D01*
X018917Y021633D01*
X018899Y021624D01*
X018881Y021618D01*
X018861Y021616D01*
X018841Y021618D01*
X018823Y021624D01*
X018805Y021633D01*
X018790Y021645D01*
X018778Y021660D01*
X018769Y021678D01*
X018763Y021696D01*
X018761Y021716D01*
X018361Y021366D02*
X017611Y021366D01*
X017611Y023366D01*
X015861Y023366D02*
X014611Y023366D01*
X014111Y023366D02*
X014113Y023397D01*
X014119Y023428D01*
X014129Y023458D01*
X014142Y023486D01*
X014159Y023513D01*
X014179Y023537D01*
X014202Y023559D01*
X014227Y023577D01*
X014255Y023592D01*
X014284Y023604D01*
X014314Y023612D01*
X014345Y023616D01*
X014377Y023616D01*
X014408Y023612D01*
X014438Y023604D01*
X014467Y023592D01*
X014495Y023577D01*
X014520Y023559D01*
X014543Y023537D01*
X014563Y023513D01*
X014580Y023486D01*
X014593Y023458D01*
X014603Y023428D01*
X014609Y023397D01*
X014611Y023366D01*
X014609Y023335D01*
X014603Y023304D01*
X014593Y023274D01*
X014580Y023246D01*
X014563Y023219D01*
X014543Y023195D01*
X014520Y023173D01*
X014495Y023155D01*
X014467Y023140D01*
X014438Y023128D01*
X014408Y023120D01*
X014377Y023116D01*
X014345Y023116D01*
X014314Y023120D01*
X014284Y023128D01*
X014255Y023140D01*
X014227Y023155D01*
X014202Y023173D01*
X014179Y023195D01*
X014159Y023219D01*
X014142Y023246D01*
X014129Y023274D01*
X014119Y023304D01*
X014113Y023335D01*
X014111Y023366D01*
X012361Y022916D02*
X012361Y016766D01*
X017611Y016366D02*
X018361Y016366D01*
X019611Y016366D01*
X019613Y016397D01*
X019619Y016428D01*
X019629Y016458D01*
X019642Y016486D01*
X019659Y016513D01*
X019679Y016537D01*
X019702Y016559D01*
X019727Y016577D01*
X019755Y016592D01*
X019784Y016604D01*
X019814Y016612D01*
X019845Y016616D01*
X019877Y016616D01*
X019908Y016612D01*
X019938Y016604D01*
X019967Y016592D01*
X019995Y016577D01*
X020020Y016559D01*
X020043Y016537D01*
X020063Y016513D01*
X020080Y016486D01*
X020093Y016458D01*
X020103Y016428D01*
X020109Y016397D01*
X020111Y016366D01*
X020109Y016335D01*
X020103Y016304D01*
X020093Y016274D01*
X020080Y016246D01*
X020063Y016219D01*
X020043Y016195D01*
X020020Y016173D01*
X019995Y016155D01*
X019967Y016140D01*
X019938Y016128D01*
X019908Y016120D01*
X019877Y016116D01*
X019845Y016116D01*
X019814Y016120D01*
X019784Y016128D01*
X019755Y016140D01*
X019727Y016155D01*
X019702Y016173D01*
X019679Y016195D01*
X019659Y016219D01*
X019642Y016246D01*
X019629Y016274D01*
X019619Y016304D01*
X019613Y016335D01*
X019611Y016366D01*
X018761Y016716D02*
X018763Y016736D01*
X018769Y016754D01*
X018778Y016772D01*
X018790Y016787D01*
X018805Y016799D01*
X018823Y016808D01*
X018841Y016814D01*
X018861Y016816D01*
X018881Y016814D01*
X018899Y016808D01*
X018917Y016799D01*
X018932Y016787D01*
X018944Y016772D01*
X018953Y016754D01*
X018959Y016736D01*
X018961Y016716D01*
X018959Y016696D01*
X018953Y016678D01*
X018944Y016660D01*
X018932Y016645D01*
X018917Y016633D01*
X018899Y016624D01*
X018881Y016618D01*
X018861Y016616D01*
X018841Y016618D01*
X018823Y016624D01*
X018805Y016633D01*
X018790Y016645D01*
X018778Y016660D01*
X018769Y016678D01*
X018763Y016696D01*
X018761Y016716D01*
X018361Y016366D02*
X018361Y018366D01*
X019611Y018366D01*
X019613Y018397D01*
X019619Y018428D01*
X019629Y018458D01*
X019642Y018486D01*
X019659Y018513D01*
X019679Y018537D01*
X019702Y018559D01*
X019727Y018577D01*
X019755Y018592D01*
X019784Y018604D01*
X019814Y018612D01*
X019845Y018616D01*
X019877Y018616D01*
X019908Y018612D01*
X019938Y018604D01*
X019967Y018592D01*
X019995Y018577D01*
X020020Y018559D01*
X020043Y018537D01*
X020063Y018513D01*
X020080Y018486D01*
X020093Y018458D01*
X020103Y018428D01*
X020109Y018397D01*
X020111Y018366D01*
X020109Y018335D01*
X020103Y018304D01*
X020093Y018274D01*
X020080Y018246D01*
X020063Y018219D01*
X020043Y018195D01*
X020020Y018173D01*
X019995Y018155D01*
X019967Y018140D01*
X019938Y018128D01*
X019908Y018120D01*
X019877Y018116D01*
X019845Y018116D01*
X019814Y018120D01*
X019784Y018128D01*
X019755Y018140D01*
X019727Y018155D01*
X019702Y018173D01*
X019679Y018195D01*
X019659Y018219D01*
X019642Y018246D01*
X019629Y018274D01*
X019619Y018304D01*
X019613Y018335D01*
X019611Y018366D01*
X018361Y018366D02*
X017611Y018366D01*
X017611Y016366D01*
X012361Y024666D02*
X012361Y025566D01*
X012363Y025592D01*
X012368Y025618D01*
X012376Y025643D01*
X012388Y025666D01*
X012402Y025688D01*
X012420Y025707D01*
X012439Y025725D01*
X012461Y025739D01*
X012484Y025751D01*
X012509Y025759D01*
X012535Y025764D01*
X012561Y025766D01*
X023650Y033049D02*
X023830Y032859D01*
X024070Y033029D01*
X024170Y032969D01*
X024370Y033419D01*
X024690Y033419D02*
X024880Y032969D01*
X024980Y033029D01*
X025220Y032859D01*
X025410Y033049D01*
X025240Y033289D01*
X025340Y033559D02*
X025640Y033609D01*
X025640Y033869D01*
X025340Y033929D01*
X025230Y034179D02*
X025410Y034439D01*
X025220Y034619D01*
X024960Y034439D01*
X024710Y034539D02*
X024660Y034859D01*
X024390Y034859D01*
X024340Y034539D01*
X024090Y034439D02*
X023830Y034619D01*
X023640Y034439D01*
X023820Y034179D01*
X023710Y033929D02*
X023410Y033869D01*
X023410Y033609D01*
X023710Y033559D01*
X023810Y033289D02*
X023650Y033049D01*
X023813Y033291D02*
X023785Y033341D01*
X023761Y033393D01*
X023740Y033446D01*
X023723Y033501D01*
X023710Y033557D01*
X024093Y034442D02*
X024138Y034467D01*
X024185Y034490D01*
X024233Y034509D01*
X024282Y034526D01*
X024332Y034539D01*
X024370Y033429D02*
X024337Y033447D01*
X024307Y033468D01*
X024278Y033492D01*
X024252Y033519D01*
X024230Y033548D01*
X024210Y033580D01*
X024193Y033613D01*
X024180Y033648D01*
X024171Y033684D01*
X024165Y033721D01*
X024163Y033758D01*
X024165Y033795D01*
X024170Y033832D01*
X024180Y033868D01*
X024192Y033903D01*
X024209Y033937D01*
X024228Y033968D01*
X024251Y033998D01*
X024277Y034025D01*
X024305Y034049D01*
X024336Y034070D01*
X024368Y034088D01*
X024402Y034103D01*
X024438Y034114D01*
X024474Y034122D01*
X024511Y034126D01*
X024549Y034126D01*
X024586Y034122D01*
X024622Y034114D01*
X024658Y034103D01*
X024692Y034088D01*
X024724Y034070D01*
X024755Y034049D01*
X024783Y034025D01*
X024809Y033998D01*
X024832Y033968D01*
X024851Y033937D01*
X024868Y033903D01*
X024880Y033868D01*
X024890Y033832D01*
X024895Y033795D01*
X024897Y033758D01*
X024895Y033721D01*
X024889Y033684D01*
X024880Y033648D01*
X024867Y033613D01*
X024850Y033580D01*
X024830Y033548D01*
X024808Y033519D01*
X024782Y033492D01*
X024753Y033468D01*
X024723Y033447D01*
X024690Y033429D01*
X025240Y033289D02*
X025263Y033330D01*
X025284Y033373D01*
X025302Y033418D01*
X025317Y033463D01*
X025330Y033509D01*
X025340Y033556D01*
X025339Y033929D02*
X025324Y033981D01*
X025305Y034032D01*
X025283Y034082D01*
X025258Y034130D01*
X025229Y034177D01*
X024964Y034440D02*
X024917Y034467D01*
X024868Y034490D01*
X024818Y034510D01*
X024767Y034527D01*
X024715Y034541D01*
X023821Y034174D02*
X023794Y034128D01*
X023770Y034080D01*
X023749Y034031D01*
X023731Y033980D01*
X023717Y033929D01*
D12*
X010061Y031862D02*
X009640Y031862D01*
X009851Y031862D02*
X009851Y032493D01*
X009640Y032282D01*
X009416Y032493D02*
X008996Y032493D01*
X008996Y031862D01*
X008996Y032177D02*
X009206Y032177D01*
X019396Y022427D02*
X019396Y022322D01*
X019501Y022217D01*
X019711Y022217D01*
X019816Y022112D01*
X019816Y022007D01*
X019711Y021901D01*
X019501Y021901D01*
X019396Y022007D01*
X019396Y022427D02*
X019501Y022532D01*
X019711Y022532D01*
X019816Y022427D01*
X020040Y022322D02*
X020250Y022532D01*
X020250Y021901D01*
X020040Y021901D02*
X020460Y021901D01*
X014750Y018032D02*
X014750Y017401D01*
X014540Y017401D02*
X014960Y017401D01*
X014540Y017822D02*
X014750Y018032D01*
X014316Y017927D02*
X014316Y017717D01*
X014211Y017612D01*
X013896Y017612D01*
X013896Y017401D02*
X013896Y018032D01*
X014211Y018032D01*
X014316Y017927D01*
X019396Y017427D02*
X019396Y017322D01*
X019501Y017217D01*
X019711Y017217D01*
X019816Y017112D01*
X019816Y017007D01*
X019711Y016901D01*
X019501Y016901D01*
X019396Y017007D01*
X019396Y017427D02*
X019501Y017532D01*
X019711Y017532D01*
X019816Y017427D01*
X020040Y017427D02*
X020145Y017532D01*
X020355Y017532D01*
X020460Y017427D01*
X020460Y017322D01*
X020040Y016901D01*
X020460Y016901D01*
X038056Y020932D02*
X038161Y020827D01*
X038582Y020827D01*
X038687Y020932D01*
X038687Y021142D01*
X038582Y021247D01*
X038687Y021471D02*
X038687Y021892D01*
X038687Y021681D02*
X038056Y021681D01*
X038267Y021471D01*
X038161Y021247D02*
X038056Y021142D01*
X038056Y020932D01*
X043823Y028200D02*
X043823Y028410D01*
X043823Y028305D02*
X044453Y028305D01*
X044453Y028200D02*
X044453Y028410D01*
X044348Y028630D02*
X043928Y028630D01*
X043823Y028735D01*
X043823Y028945D01*
X043928Y029050D01*
X043928Y029274D02*
X043823Y029379D01*
X043823Y029589D01*
X043928Y029694D01*
X044033Y029694D01*
X044138Y029589D01*
X044243Y029694D01*
X044348Y029694D01*
X044453Y029589D01*
X044453Y029379D01*
X044348Y029274D01*
X044348Y029050D02*
X044453Y028945D01*
X044453Y028735D01*
X044348Y028630D01*
X044138Y029484D02*
X044138Y029589D01*
X038687Y012049D02*
X038687Y011629D01*
X038267Y012049D01*
X038161Y012049D01*
X038056Y011944D01*
X038056Y011734D01*
X038161Y011629D01*
X038161Y011405D02*
X038056Y011299D01*
X038056Y011089D01*
X038161Y010984D01*
X038582Y010984D01*
X038687Y011089D01*
X038687Y011299D01*
X038582Y011405D01*
X048823Y010486D02*
X048823Y010276D01*
X048928Y010171D01*
X048928Y009947D02*
X048823Y009842D01*
X048823Y009632D01*
X048928Y009527D01*
X049348Y009527D01*
X049453Y009632D01*
X049453Y009842D01*
X049348Y009947D01*
X049453Y010171D02*
X049033Y010591D01*
X048928Y010591D01*
X048823Y010486D01*
X049453Y010591D02*
X049453Y010171D01*
X049453Y009307D02*
X049453Y009097D01*
X049453Y009202D02*
X048823Y009202D01*
X048823Y009097D02*
X048823Y009307D01*
D13*
X048688Y009481D02*
X048688Y004581D01*
X048338Y004581D01*
X048338Y003981D01*
X048688Y003981D01*
X048688Y003231D01*
X044588Y003231D01*
X044588Y003981D01*
X044938Y003981D01*
X044938Y004581D01*
X044588Y004581D01*
X044588Y009481D01*
X048688Y009481D01*
X045928Y004581D02*
X045930Y004634D01*
X045936Y004687D01*
X045946Y004739D01*
X045960Y004790D01*
X045977Y004840D01*
X045998Y004889D01*
X046023Y004936D01*
X046051Y004981D01*
X046083Y005024D01*
X046118Y005064D01*
X046155Y005101D01*
X046195Y005136D01*
X046238Y005168D01*
X046283Y005196D01*
X046330Y005221D01*
X046379Y005242D01*
X046429Y005259D01*
X046480Y005273D01*
X046532Y005283D01*
X046585Y005289D01*
X046638Y005291D01*
X046691Y005289D01*
X046744Y005283D01*
X046796Y005273D01*
X046847Y005259D01*
X046897Y005242D01*
X046946Y005221D01*
X046993Y005196D01*
X047038Y005168D01*
X047081Y005136D01*
X047121Y005101D01*
X047158Y005064D01*
X047193Y005024D01*
X047225Y004981D01*
X047253Y004936D01*
X047278Y004889D01*
X047299Y004840D01*
X047316Y004790D01*
X047330Y004739D01*
X047340Y004687D01*
X047346Y004634D01*
X047348Y004581D01*
X047346Y004528D01*
X047340Y004475D01*
X047330Y004423D01*
X047316Y004372D01*
X047299Y004322D01*
X047278Y004273D01*
X047253Y004226D01*
X047225Y004181D01*
X047193Y004138D01*
X047158Y004098D01*
X047121Y004061D01*
X047081Y004026D01*
X047038Y003994D01*
X046993Y003966D01*
X046946Y003941D01*
X046897Y003920D01*
X046847Y003903D01*
X046796Y003889D01*
X046744Y003879D01*
X046691Y003873D01*
X046638Y003871D01*
X046585Y003873D01*
X046532Y003879D01*
X046480Y003889D01*
X046429Y003903D01*
X046379Y003920D01*
X046330Y003941D01*
X046283Y003966D01*
X046238Y003994D01*
X046195Y004026D01*
X046155Y004061D01*
X046118Y004098D01*
X046083Y004138D01*
X046051Y004181D01*
X046023Y004226D01*
X045998Y004273D01*
X045977Y004322D01*
X045960Y004372D01*
X045946Y004423D01*
X045936Y004475D01*
X045930Y004528D01*
X045928Y004581D01*
X057605Y010449D02*
X057605Y010599D01*
X057655Y010649D01*
X057655Y012549D01*
X057605Y012599D01*
X057605Y012749D01*
X057607Y012766D01*
X057611Y012783D01*
X057618Y012799D01*
X057628Y012813D01*
X057641Y012826D01*
X057655Y012836D01*
X057671Y012843D01*
X057688Y012847D01*
X057705Y012849D01*
X058405Y012849D01*
X058422Y012847D01*
X058439Y012843D01*
X058455Y012836D01*
X058469Y012826D01*
X058482Y012813D01*
X058492Y012799D01*
X058499Y012783D01*
X058503Y012766D01*
X058505Y012749D01*
X058505Y012599D01*
X058455Y012549D01*
X058455Y010649D01*
X058505Y010599D01*
X058505Y010449D01*
X058503Y010432D01*
X058499Y010415D01*
X058492Y010399D01*
X058482Y010385D01*
X058469Y010372D01*
X058455Y010362D01*
X058439Y010355D01*
X058422Y010351D01*
X058405Y010349D01*
X057705Y010349D01*
X057688Y010351D01*
X057671Y010355D01*
X057655Y010362D01*
X057641Y010372D01*
X057628Y010385D01*
X057618Y010399D01*
X057611Y010415D01*
X057607Y010432D01*
X057605Y010449D01*
X059811Y011599D02*
X059813Y011662D01*
X059819Y011724D01*
X059829Y011786D01*
X059842Y011848D01*
X059860Y011908D01*
X059881Y011967D01*
X059906Y012025D01*
X059935Y012081D01*
X059967Y012135D01*
X060002Y012187D01*
X060040Y012236D01*
X060082Y012284D01*
X060126Y012328D01*
X060174Y012370D01*
X060223Y012408D01*
X060275Y012443D01*
X060329Y012475D01*
X060385Y012504D01*
X060443Y012529D01*
X060502Y012550D01*
X060562Y012568D01*
X060624Y012581D01*
X060686Y012591D01*
X060748Y012597D01*
X060811Y012599D01*
X060874Y012597D01*
X060936Y012591D01*
X060998Y012581D01*
X061060Y012568D01*
X061120Y012550D01*
X061179Y012529D01*
X061237Y012504D01*
X061293Y012475D01*
X061347Y012443D01*
X061399Y012408D01*
X061448Y012370D01*
X061496Y012328D01*
X061540Y012284D01*
X061582Y012236D01*
X061620Y012187D01*
X061655Y012135D01*
X061687Y012081D01*
X061716Y012025D01*
X061741Y011967D01*
X061762Y011908D01*
X061780Y011848D01*
X061793Y011786D01*
X061803Y011724D01*
X061809Y011662D01*
X061811Y011599D01*
X061809Y011536D01*
X061803Y011474D01*
X061793Y011412D01*
X061780Y011350D01*
X061762Y011290D01*
X061741Y011231D01*
X061716Y011173D01*
X061687Y011117D01*
X061655Y011063D01*
X061620Y011011D01*
X061582Y010962D01*
X061540Y010914D01*
X061496Y010870D01*
X061448Y010828D01*
X061399Y010790D01*
X061347Y010755D01*
X061293Y010723D01*
X061237Y010694D01*
X061179Y010669D01*
X061120Y010648D01*
X061060Y010630D01*
X060998Y010617D01*
X060936Y010607D01*
X060874Y010601D01*
X060811Y010599D01*
X060748Y010601D01*
X060686Y010607D01*
X060624Y010617D01*
X060562Y010630D01*
X060502Y010648D01*
X060443Y010669D01*
X060385Y010694D01*
X060329Y010723D01*
X060275Y010755D01*
X060223Y010790D01*
X060174Y010828D01*
X060126Y010870D01*
X060082Y010914D01*
X060040Y010962D01*
X060002Y011011D01*
X059967Y011063D01*
X059935Y011117D01*
X059906Y011173D01*
X059881Y011231D01*
X059860Y011290D01*
X059842Y011350D01*
X059829Y011412D01*
X059819Y011474D01*
X059813Y011536D01*
X059811Y011599D01*
X052518Y015536D02*
X052520Y015616D01*
X052526Y015695D01*
X052536Y015774D01*
X052550Y015853D01*
X052567Y015931D01*
X052589Y016008D01*
X052614Y016083D01*
X052644Y016157D01*
X052676Y016230D01*
X052713Y016301D01*
X052753Y016370D01*
X052796Y016437D01*
X052843Y016502D01*
X052892Y016564D01*
X052945Y016624D01*
X053001Y016681D01*
X053059Y016736D01*
X053120Y016787D01*
X053184Y016835D01*
X053250Y016880D01*
X053318Y016922D01*
X053388Y016960D01*
X053460Y016994D01*
X053533Y017025D01*
X053608Y017053D01*
X053685Y017076D01*
X053762Y017096D01*
X053840Y017112D01*
X053919Y017124D01*
X053998Y017132D01*
X054078Y017136D01*
X054158Y017136D01*
X054238Y017132D01*
X054317Y017124D01*
X054396Y017112D01*
X054474Y017096D01*
X054551Y017076D01*
X054628Y017053D01*
X054703Y017025D01*
X054776Y016994D01*
X054848Y016960D01*
X054918Y016922D01*
X054986Y016880D01*
X055052Y016835D01*
X055116Y016787D01*
X055177Y016736D01*
X055235Y016681D01*
X055291Y016624D01*
X055344Y016564D01*
X055393Y016502D01*
X055440Y016437D01*
X055483Y016370D01*
X055523Y016301D01*
X055560Y016230D01*
X055592Y016157D01*
X055622Y016083D01*
X055647Y016008D01*
X055669Y015931D01*
X055686Y015853D01*
X055700Y015774D01*
X055710Y015695D01*
X055716Y015616D01*
X055718Y015536D01*
X055716Y015456D01*
X055710Y015377D01*
X055700Y015298D01*
X055686Y015219D01*
X055669Y015141D01*
X055647Y015064D01*
X055622Y014989D01*
X055592Y014915D01*
X055560Y014842D01*
X055523Y014771D01*
X055483Y014702D01*
X055440Y014635D01*
X055393Y014570D01*
X055344Y014508D01*
X055291Y014448D01*
X055235Y014391D01*
X055177Y014336D01*
X055116Y014285D01*
X055052Y014237D01*
X054986Y014192D01*
X054918Y014150D01*
X054848Y014112D01*
X054776Y014078D01*
X054703Y014047D01*
X054628Y014019D01*
X054551Y013996D01*
X054474Y013976D01*
X054396Y013960D01*
X054317Y013948D01*
X054238Y013940D01*
X054158Y013936D01*
X054078Y013936D01*
X053998Y013940D01*
X053919Y013948D01*
X053840Y013960D01*
X053762Y013976D01*
X053685Y013996D01*
X053608Y014019D01*
X053533Y014047D01*
X053460Y014078D01*
X053388Y014112D01*
X053318Y014150D01*
X053250Y014192D01*
X053184Y014237D01*
X053120Y014285D01*
X053059Y014336D01*
X053001Y014391D01*
X052945Y014448D01*
X052892Y014508D01*
X052843Y014570D01*
X052796Y014635D01*
X052753Y014702D01*
X052713Y014771D01*
X052676Y014842D01*
X052644Y014915D01*
X052614Y014989D01*
X052589Y015064D01*
X052567Y015141D01*
X052550Y015219D01*
X052536Y015298D01*
X052526Y015377D01*
X052520Y015456D01*
X052518Y015536D01*
X054418Y016736D02*
X054718Y016736D01*
X054568Y016886D02*
X054568Y016586D01*
X052518Y023803D02*
X052520Y023883D01*
X052526Y023962D01*
X052536Y024041D01*
X052550Y024120D01*
X052567Y024198D01*
X052589Y024275D01*
X052614Y024350D01*
X052644Y024424D01*
X052676Y024497D01*
X052713Y024568D01*
X052753Y024637D01*
X052796Y024704D01*
X052843Y024769D01*
X052892Y024831D01*
X052945Y024891D01*
X053001Y024948D01*
X053059Y025003D01*
X053120Y025054D01*
X053184Y025102D01*
X053250Y025147D01*
X053318Y025189D01*
X053388Y025227D01*
X053460Y025261D01*
X053533Y025292D01*
X053608Y025320D01*
X053685Y025343D01*
X053762Y025363D01*
X053840Y025379D01*
X053919Y025391D01*
X053998Y025399D01*
X054078Y025403D01*
X054158Y025403D01*
X054238Y025399D01*
X054317Y025391D01*
X054396Y025379D01*
X054474Y025363D01*
X054551Y025343D01*
X054628Y025320D01*
X054703Y025292D01*
X054776Y025261D01*
X054848Y025227D01*
X054918Y025189D01*
X054986Y025147D01*
X055052Y025102D01*
X055116Y025054D01*
X055177Y025003D01*
X055235Y024948D01*
X055291Y024891D01*
X055344Y024831D01*
X055393Y024769D01*
X055440Y024704D01*
X055483Y024637D01*
X055523Y024568D01*
X055560Y024497D01*
X055592Y024424D01*
X055622Y024350D01*
X055647Y024275D01*
X055669Y024198D01*
X055686Y024120D01*
X055700Y024041D01*
X055710Y023962D01*
X055716Y023883D01*
X055718Y023803D01*
X055716Y023723D01*
X055710Y023644D01*
X055700Y023565D01*
X055686Y023486D01*
X055669Y023408D01*
X055647Y023331D01*
X055622Y023256D01*
X055592Y023182D01*
X055560Y023109D01*
X055523Y023038D01*
X055483Y022969D01*
X055440Y022902D01*
X055393Y022837D01*
X055344Y022775D01*
X055291Y022715D01*
X055235Y022658D01*
X055177Y022603D01*
X055116Y022552D01*
X055052Y022504D01*
X054986Y022459D01*
X054918Y022417D01*
X054848Y022379D01*
X054776Y022345D01*
X054703Y022314D01*
X054628Y022286D01*
X054551Y022263D01*
X054474Y022243D01*
X054396Y022227D01*
X054317Y022215D01*
X054238Y022207D01*
X054158Y022203D01*
X054078Y022203D01*
X053998Y022207D01*
X053919Y022215D01*
X053840Y022227D01*
X053762Y022243D01*
X053685Y022263D01*
X053608Y022286D01*
X053533Y022314D01*
X053460Y022345D01*
X053388Y022379D01*
X053318Y022417D01*
X053250Y022459D01*
X053184Y022504D01*
X053120Y022552D01*
X053059Y022603D01*
X053001Y022658D01*
X052945Y022715D01*
X052892Y022775D01*
X052843Y022837D01*
X052796Y022902D01*
X052753Y022969D01*
X052713Y023038D01*
X052676Y023109D01*
X052644Y023182D01*
X052614Y023256D01*
X052589Y023331D01*
X052567Y023408D01*
X052550Y023486D01*
X052536Y023565D01*
X052526Y023644D01*
X052520Y023723D01*
X052518Y023803D01*
X054418Y025003D02*
X054718Y025003D01*
X054568Y025153D02*
X054568Y024853D01*
X057312Y027672D02*
X058012Y027672D01*
X058029Y027674D01*
X058046Y027678D01*
X058062Y027685D01*
X058076Y027695D01*
X058089Y027708D01*
X058099Y027722D01*
X058106Y027738D01*
X058110Y027755D01*
X058112Y027772D01*
X058112Y027922D01*
X058062Y027972D01*
X058062Y029872D01*
X058112Y029922D01*
X058112Y030072D01*
X058110Y030089D01*
X058106Y030106D01*
X058099Y030122D01*
X058089Y030136D01*
X058076Y030149D01*
X058062Y030159D01*
X058046Y030166D01*
X058029Y030170D01*
X058012Y030172D01*
X057312Y030172D01*
X057295Y030170D01*
X057278Y030166D01*
X057262Y030159D01*
X057248Y030149D01*
X057235Y030136D01*
X057225Y030122D01*
X057218Y030106D01*
X057214Y030089D01*
X057212Y030072D01*
X057212Y029922D01*
X057262Y029872D01*
X057262Y027972D01*
X057212Y027922D01*
X057212Y027772D01*
X057214Y027755D01*
X057218Y027738D01*
X057225Y027722D01*
X057235Y027708D01*
X057248Y027695D01*
X057262Y027685D01*
X057278Y027678D01*
X057295Y027674D01*
X057312Y027672D01*
X059418Y028528D02*
X059420Y028591D01*
X059426Y028653D01*
X059436Y028715D01*
X059449Y028777D01*
X059467Y028837D01*
X059488Y028896D01*
X059513Y028954D01*
X059542Y029010D01*
X059574Y029064D01*
X059609Y029116D01*
X059647Y029165D01*
X059689Y029213D01*
X059733Y029257D01*
X059781Y029299D01*
X059830Y029337D01*
X059882Y029372D01*
X059936Y029404D01*
X059992Y029433D01*
X060050Y029458D01*
X060109Y029479D01*
X060169Y029497D01*
X060231Y029510D01*
X060293Y029520D01*
X060355Y029526D01*
X060418Y029528D01*
X060481Y029526D01*
X060543Y029520D01*
X060605Y029510D01*
X060667Y029497D01*
X060727Y029479D01*
X060786Y029458D01*
X060844Y029433D01*
X060900Y029404D01*
X060954Y029372D01*
X061006Y029337D01*
X061055Y029299D01*
X061103Y029257D01*
X061147Y029213D01*
X061189Y029165D01*
X061227Y029116D01*
X061262Y029064D01*
X061294Y029010D01*
X061323Y028954D01*
X061348Y028896D01*
X061369Y028837D01*
X061387Y028777D01*
X061400Y028715D01*
X061410Y028653D01*
X061416Y028591D01*
X061418Y028528D01*
X061416Y028465D01*
X061410Y028403D01*
X061400Y028341D01*
X061387Y028279D01*
X061369Y028219D01*
X061348Y028160D01*
X061323Y028102D01*
X061294Y028046D01*
X061262Y027992D01*
X061227Y027940D01*
X061189Y027891D01*
X061147Y027843D01*
X061103Y027799D01*
X061055Y027757D01*
X061006Y027719D01*
X060954Y027684D01*
X060900Y027652D01*
X060844Y027623D01*
X060786Y027598D01*
X060727Y027577D01*
X060667Y027559D01*
X060605Y027546D01*
X060543Y027536D01*
X060481Y027530D01*
X060418Y027528D01*
X060355Y027530D01*
X060293Y027536D01*
X060231Y027546D01*
X060169Y027559D01*
X060109Y027577D01*
X060050Y027598D01*
X059992Y027623D01*
X059936Y027652D01*
X059882Y027684D01*
X059830Y027719D01*
X059781Y027757D01*
X059733Y027799D01*
X059689Y027843D01*
X059647Y027891D01*
X059609Y027940D01*
X059574Y027992D01*
X059542Y028046D01*
X059513Y028102D01*
X059488Y028160D01*
X059467Y028219D01*
X059449Y028279D01*
X059436Y028341D01*
X059426Y028403D01*
X059420Y028465D01*
X059418Y028528D01*
X048688Y029465D02*
X048688Y034365D01*
X048338Y034365D01*
X048338Y034965D01*
X048688Y034965D01*
X048688Y035715D01*
X044588Y035715D01*
X044588Y034965D01*
X044938Y034965D01*
X044938Y034365D01*
X044588Y034365D01*
X044588Y029465D01*
X048688Y029465D01*
X045928Y034365D02*
X045930Y034418D01*
X045936Y034471D01*
X045946Y034523D01*
X045960Y034574D01*
X045977Y034624D01*
X045998Y034673D01*
X046023Y034720D01*
X046051Y034765D01*
X046083Y034808D01*
X046118Y034848D01*
X046155Y034885D01*
X046195Y034920D01*
X046238Y034952D01*
X046283Y034980D01*
X046330Y035005D01*
X046379Y035026D01*
X046429Y035043D01*
X046480Y035057D01*
X046532Y035067D01*
X046585Y035073D01*
X046638Y035075D01*
X046691Y035073D01*
X046744Y035067D01*
X046796Y035057D01*
X046847Y035043D01*
X046897Y035026D01*
X046946Y035005D01*
X046993Y034980D01*
X047038Y034952D01*
X047081Y034920D01*
X047121Y034885D01*
X047158Y034848D01*
X047193Y034808D01*
X047225Y034765D01*
X047253Y034720D01*
X047278Y034673D01*
X047299Y034624D01*
X047316Y034574D01*
X047330Y034523D01*
X047340Y034471D01*
X047346Y034418D01*
X047348Y034365D01*
X047346Y034312D01*
X047340Y034259D01*
X047330Y034207D01*
X047316Y034156D01*
X047299Y034106D01*
X047278Y034057D01*
X047253Y034010D01*
X047225Y033965D01*
X047193Y033922D01*
X047158Y033882D01*
X047121Y033845D01*
X047081Y033810D01*
X047038Y033778D01*
X046993Y033750D01*
X046946Y033725D01*
X046897Y033704D01*
X046847Y033687D01*
X046796Y033673D01*
X046744Y033663D01*
X046691Y033657D01*
X046638Y033655D01*
X046585Y033657D01*
X046532Y033663D01*
X046480Y033673D01*
X046429Y033687D01*
X046379Y033704D01*
X046330Y033725D01*
X046283Y033750D01*
X046238Y033778D01*
X046195Y033810D01*
X046155Y033845D01*
X046118Y033882D01*
X046083Y033922D01*
X046051Y033965D01*
X046023Y034010D01*
X045998Y034057D01*
X045977Y034106D01*
X045960Y034156D01*
X045946Y034207D01*
X045936Y034259D01*
X045930Y034312D01*
X045928Y034365D01*
X036402Y026841D02*
X036402Y026341D01*
X036152Y026591D02*
X036652Y026591D01*
X036402Y025041D02*
X036402Y024941D01*
X036902Y024941D01*
X036902Y024691D01*
X035902Y024691D01*
X035902Y024941D01*
X036402Y024941D01*
X033652Y024591D02*
X033655Y024726D01*
X033665Y024861D01*
X033682Y024995D01*
X033705Y025127D01*
X033734Y025259D01*
X033770Y025389D01*
X033813Y025517D01*
X033861Y025643D01*
X033916Y025767D01*
X033977Y025887D01*
X034043Y026005D01*
X034115Y026119D01*
X034193Y026229D01*
X034276Y026336D01*
X034364Y026438D01*
X034457Y026536D01*
X034555Y026629D01*
X034657Y026717D01*
X034764Y026800D01*
X034874Y026878D01*
X034988Y026950D01*
X035106Y027016D01*
X035226Y027077D01*
X035350Y027132D01*
X035476Y027180D01*
X035604Y027223D01*
X035734Y027259D01*
X035866Y027288D01*
X035998Y027311D01*
X036132Y027328D01*
X036267Y027338D01*
X036402Y027341D01*
X036537Y027338D01*
X036672Y027328D01*
X036806Y027311D01*
X036938Y027288D01*
X037070Y027259D01*
X037200Y027223D01*
X037328Y027180D01*
X037454Y027132D01*
X037578Y027077D01*
X037698Y027016D01*
X037816Y026950D01*
X037930Y026878D01*
X038040Y026800D01*
X038147Y026717D01*
X038249Y026629D01*
X038347Y026536D01*
X038440Y026438D01*
X038528Y026336D01*
X038611Y026229D01*
X038689Y026119D01*
X038761Y026005D01*
X038827Y025887D01*
X038888Y025767D01*
X038943Y025643D01*
X038991Y025517D01*
X039034Y025389D01*
X039070Y025259D01*
X039099Y025127D01*
X039122Y024995D01*
X039139Y024861D01*
X039149Y024726D01*
X039152Y024591D01*
X039149Y024456D01*
X039139Y024321D01*
X039122Y024187D01*
X039099Y024055D01*
X039070Y023923D01*
X039034Y023793D01*
X038991Y023665D01*
X038943Y023539D01*
X038888Y023415D01*
X038827Y023295D01*
X038761Y023177D01*
X038689Y023063D01*
X038611Y022953D01*
X038528Y022846D01*
X038440Y022744D01*
X038347Y022646D01*
X038249Y022553D01*
X038147Y022465D01*
X038040Y022382D01*
X037930Y022304D01*
X037816Y022232D01*
X037698Y022166D01*
X037578Y022105D01*
X037454Y022050D01*
X037328Y022002D01*
X037200Y021959D01*
X037070Y021923D01*
X036938Y021894D01*
X036806Y021871D01*
X036672Y021854D01*
X036537Y021844D01*
X036402Y021841D01*
X036267Y021844D01*
X036132Y021854D01*
X035998Y021871D01*
X035866Y021894D01*
X035734Y021923D01*
X035604Y021959D01*
X035476Y022002D01*
X035350Y022050D01*
X035226Y022105D01*
X035106Y022166D01*
X034988Y022232D01*
X034874Y022304D01*
X034764Y022382D01*
X034657Y022465D01*
X034555Y022553D01*
X034457Y022646D01*
X034364Y022744D01*
X034276Y022846D01*
X034193Y022953D01*
X034115Y023063D01*
X034043Y023177D01*
X033977Y023295D01*
X033916Y023415D01*
X033861Y023539D01*
X033813Y023665D01*
X033770Y023793D01*
X033734Y023923D01*
X033705Y024055D01*
X033682Y024187D01*
X033665Y024321D01*
X033655Y024456D01*
X033652Y024591D01*
X036402Y024341D02*
X036402Y024141D01*
X030996Y023591D02*
X030596Y023591D01*
X028896Y023591D02*
X028947Y023512D01*
X029001Y023436D01*
X029060Y023363D01*
X029122Y023292D01*
X029187Y023225D01*
X029255Y023161D01*
X029326Y023101D01*
X029401Y023044D01*
X029478Y022990D01*
X029557Y022941D01*
X029639Y022895D01*
X029723Y022854D01*
X029809Y022817D01*
X029897Y022783D01*
X029986Y022755D01*
X030076Y022730D01*
X030168Y022710D01*
X030260Y022695D01*
X030353Y022684D01*
X030446Y022678D01*
X030540Y022676D01*
X030634Y022679D01*
X030727Y022686D01*
X030820Y022698D01*
X030912Y022715D01*
X031003Y022736D01*
X031093Y022761D01*
X031182Y022791D01*
X031269Y022825D01*
X031355Y022863D01*
X031438Y022906D01*
X031520Y022952D01*
X031599Y023003D01*
X031675Y023057D01*
X031749Y023115D01*
X031819Y023176D01*
X031887Y023241D01*
X031951Y023309D01*
X032012Y023380D01*
X032070Y023454D01*
X032124Y023531D01*
X032174Y023610D01*
X032220Y023691D01*
X032261Y023775D01*
X032299Y023861D01*
X032333Y023948D01*
X032362Y024037D01*
X032387Y024127D01*
X032407Y024219D01*
X032423Y024311D01*
X032435Y024404D01*
X032442Y024497D01*
X032444Y024591D01*
X032442Y024685D01*
X032435Y024778D01*
X032423Y024871D01*
X032407Y024963D01*
X032387Y025055D01*
X032362Y025145D01*
X032333Y025234D01*
X032299Y025321D01*
X032261Y025407D01*
X032220Y025491D01*
X032174Y025572D01*
X032124Y025651D01*
X032070Y025728D01*
X032012Y025802D01*
X031951Y025873D01*
X031887Y025941D01*
X031819Y026006D01*
X031749Y026067D01*
X031675Y026125D01*
X031599Y026179D01*
X031520Y026230D01*
X031438Y026276D01*
X031355Y026319D01*
X031269Y026357D01*
X031182Y026391D01*
X031093Y026421D01*
X031003Y026446D01*
X030912Y026467D01*
X030820Y026484D01*
X030727Y026496D01*
X030634Y026503D01*
X030540Y026506D01*
X030446Y026504D01*
X030353Y026498D01*
X030260Y026487D01*
X030168Y026472D01*
X030076Y026452D01*
X029986Y026427D01*
X029897Y026399D01*
X029809Y026365D01*
X029723Y026328D01*
X029639Y026287D01*
X029557Y026241D01*
X029478Y026192D01*
X029401Y026138D01*
X029326Y026081D01*
X029255Y026021D01*
X029187Y025957D01*
X029122Y025890D01*
X029060Y025819D01*
X029001Y025746D01*
X028947Y025670D01*
X028896Y025591D01*
X028896Y023591D01*
X030196Y025391D02*
X030196Y025791D01*
X029996Y025591D02*
X030396Y025591D01*
X018911Y032677D02*
X018911Y034177D01*
X018211Y033827D02*
X016211Y033827D01*
X016211Y033377D01*
X018211Y033377D01*
X018211Y033827D01*
X018911Y032677D02*
X009011Y032677D01*
X009011Y034177D01*
X009461Y034027D02*
X009461Y033377D01*
X009711Y033377D01*
X011711Y033377D01*
X011711Y033827D01*
X009711Y033827D01*
X009711Y033577D01*
X009561Y033577D01*
X009561Y034027D01*
X009711Y033577D02*
X009711Y033377D01*
X009011Y035477D02*
X009011Y036977D01*
X018911Y036977D01*
X018911Y035477D01*
X018461Y035627D02*
X018461Y036277D01*
X018211Y036277D01*
X016211Y036277D01*
X016211Y035827D01*
X018211Y035827D01*
X018211Y036077D01*
X018361Y036077D01*
X018361Y035627D01*
X018211Y036077D02*
X018211Y036277D01*
X011711Y036277D02*
X011711Y035827D01*
X009711Y035827D01*
X009711Y036277D01*
X011711Y036277D01*
X000800Y037189D02*
X000802Y037262D01*
X000808Y037335D01*
X000818Y037407D01*
X000832Y037479D01*
X000849Y037550D01*
X000871Y037620D01*
X000896Y037689D01*
X000925Y037756D01*
X000957Y037821D01*
X000993Y037885D01*
X001033Y037947D01*
X001075Y038006D01*
X001121Y038063D01*
X001170Y038117D01*
X001222Y038169D01*
X001276Y038218D01*
X001333Y038264D01*
X001392Y038306D01*
X001454Y038346D01*
X001518Y038382D01*
X001583Y038414D01*
X001650Y038443D01*
X001719Y038468D01*
X001789Y038490D01*
X001860Y038507D01*
X001932Y038521D01*
X002004Y038531D01*
X002077Y038537D01*
X002150Y038539D01*
X002223Y038537D01*
X002296Y038531D01*
X002368Y038521D01*
X002440Y038507D01*
X002511Y038490D01*
X002581Y038468D01*
X002650Y038443D01*
X002717Y038414D01*
X002782Y038382D01*
X002846Y038346D01*
X002908Y038306D01*
X002967Y038264D01*
X003024Y038218D01*
X003078Y038169D01*
X003130Y038117D01*
X003179Y038063D01*
X003225Y038006D01*
X003267Y037947D01*
X003307Y037885D01*
X003343Y037821D01*
X003375Y037756D01*
X003404Y037689D01*
X003429Y037620D01*
X003451Y037550D01*
X003468Y037479D01*
X003482Y037407D01*
X003492Y037335D01*
X003498Y037262D01*
X003500Y037189D01*
X003498Y037116D01*
X003492Y037043D01*
X003482Y036971D01*
X003468Y036899D01*
X003451Y036828D01*
X003429Y036758D01*
X003404Y036689D01*
X003375Y036622D01*
X003343Y036557D01*
X003307Y036493D01*
X003267Y036431D01*
X003225Y036372D01*
X003179Y036315D01*
X003130Y036261D01*
X003078Y036209D01*
X003024Y036160D01*
X002967Y036114D01*
X002908Y036072D01*
X002846Y036032D01*
X002782Y035996D01*
X002717Y035964D01*
X002650Y035935D01*
X002581Y035910D01*
X002511Y035888D01*
X002440Y035871D01*
X002368Y035857D01*
X002296Y035847D01*
X002223Y035841D01*
X002150Y035839D01*
X002077Y035841D01*
X002004Y035847D01*
X001932Y035857D01*
X001860Y035871D01*
X001789Y035888D01*
X001719Y035910D01*
X001650Y035935D01*
X001583Y035964D01*
X001518Y035996D01*
X001454Y036032D01*
X001392Y036072D01*
X001333Y036114D01*
X001276Y036160D01*
X001222Y036209D01*
X001170Y036261D01*
X001121Y036315D01*
X001075Y036372D01*
X001033Y036431D01*
X000993Y036493D01*
X000957Y036557D01*
X000925Y036622D01*
X000896Y036689D01*
X000871Y036758D01*
X000849Y036828D01*
X000832Y036899D01*
X000818Y036971D01*
X000808Y037043D01*
X000802Y037116D01*
X000800Y037189D01*
X030196Y015948D02*
X030196Y015548D01*
X029996Y015748D02*
X030396Y015748D01*
X028896Y015748D02*
X028947Y015827D01*
X029001Y015903D01*
X029060Y015976D01*
X029122Y016047D01*
X029187Y016114D01*
X029255Y016178D01*
X029326Y016238D01*
X029401Y016295D01*
X029478Y016349D01*
X029557Y016398D01*
X029639Y016444D01*
X029723Y016485D01*
X029809Y016522D01*
X029897Y016556D01*
X029986Y016584D01*
X030076Y016609D01*
X030168Y016629D01*
X030260Y016644D01*
X030353Y016655D01*
X030446Y016661D01*
X030540Y016663D01*
X030634Y016660D01*
X030727Y016653D01*
X030820Y016641D01*
X030912Y016624D01*
X031003Y016603D01*
X031093Y016578D01*
X031182Y016548D01*
X031269Y016514D01*
X031355Y016476D01*
X031438Y016433D01*
X031520Y016387D01*
X031599Y016336D01*
X031675Y016282D01*
X031749Y016224D01*
X031819Y016163D01*
X031887Y016098D01*
X031951Y016030D01*
X032012Y015959D01*
X032070Y015885D01*
X032124Y015808D01*
X032174Y015729D01*
X032220Y015648D01*
X032261Y015564D01*
X032299Y015478D01*
X032333Y015391D01*
X032362Y015302D01*
X032387Y015212D01*
X032407Y015120D01*
X032423Y015028D01*
X032435Y014935D01*
X032442Y014842D01*
X032444Y014748D01*
X032442Y014654D01*
X032435Y014561D01*
X032423Y014468D01*
X032407Y014376D01*
X032387Y014284D01*
X032362Y014194D01*
X032333Y014105D01*
X032299Y014018D01*
X032261Y013932D01*
X032220Y013848D01*
X032174Y013767D01*
X032124Y013688D01*
X032070Y013611D01*
X032012Y013537D01*
X031951Y013466D01*
X031887Y013398D01*
X031819Y013333D01*
X031749Y013272D01*
X031675Y013214D01*
X031599Y013160D01*
X031520Y013109D01*
X031438Y013063D01*
X031355Y013020D01*
X031269Y012982D01*
X031182Y012948D01*
X031093Y012918D01*
X031003Y012893D01*
X030912Y012872D01*
X030820Y012855D01*
X030727Y012843D01*
X030634Y012836D01*
X030540Y012833D01*
X030446Y012835D01*
X030353Y012841D01*
X030260Y012852D01*
X030168Y012867D01*
X030076Y012887D01*
X029986Y012912D01*
X029897Y012940D01*
X029809Y012974D01*
X029723Y013011D01*
X029639Y013052D01*
X029557Y013098D01*
X029478Y013147D01*
X029401Y013201D01*
X029326Y013258D01*
X029255Y013318D01*
X029187Y013382D01*
X029122Y013449D01*
X029060Y013520D01*
X029001Y013593D01*
X028947Y013669D01*
X028896Y013748D01*
X028896Y015748D01*
X030596Y013748D02*
X030996Y013748D01*
X035902Y014848D02*
X036902Y014848D01*
X036902Y015098D01*
X036402Y015098D01*
X035902Y015098D01*
X035902Y014848D01*
X033652Y014748D02*
X033655Y014883D01*
X033665Y015018D01*
X033682Y015152D01*
X033705Y015284D01*
X033734Y015416D01*
X033770Y015546D01*
X033813Y015674D01*
X033861Y015800D01*
X033916Y015924D01*
X033977Y016044D01*
X034043Y016162D01*
X034115Y016276D01*
X034193Y016386D01*
X034276Y016493D01*
X034364Y016595D01*
X034457Y016693D01*
X034555Y016786D01*
X034657Y016874D01*
X034764Y016957D01*
X034874Y017035D01*
X034988Y017107D01*
X035106Y017173D01*
X035226Y017234D01*
X035350Y017289D01*
X035476Y017337D01*
X035604Y017380D01*
X035734Y017416D01*
X035866Y017445D01*
X035998Y017468D01*
X036132Y017485D01*
X036267Y017495D01*
X036402Y017498D01*
X036537Y017495D01*
X036672Y017485D01*
X036806Y017468D01*
X036938Y017445D01*
X037070Y017416D01*
X037200Y017380D01*
X037328Y017337D01*
X037454Y017289D01*
X037578Y017234D01*
X037698Y017173D01*
X037816Y017107D01*
X037930Y017035D01*
X038040Y016957D01*
X038147Y016874D01*
X038249Y016786D01*
X038347Y016693D01*
X038440Y016595D01*
X038528Y016493D01*
X038611Y016386D01*
X038689Y016276D01*
X038761Y016162D01*
X038827Y016044D01*
X038888Y015924D01*
X038943Y015800D01*
X038991Y015674D01*
X039034Y015546D01*
X039070Y015416D01*
X039099Y015284D01*
X039122Y015152D01*
X039139Y015018D01*
X039149Y014883D01*
X039152Y014748D01*
X039149Y014613D01*
X039139Y014478D01*
X039122Y014344D01*
X039099Y014212D01*
X039070Y014080D01*
X039034Y013950D01*
X038991Y013822D01*
X038943Y013696D01*
X038888Y013572D01*
X038827Y013452D01*
X038761Y013334D01*
X038689Y013220D01*
X038611Y013110D01*
X038528Y013003D01*
X038440Y012901D01*
X038347Y012803D01*
X038249Y012710D01*
X038147Y012622D01*
X038040Y012539D01*
X037930Y012461D01*
X037816Y012389D01*
X037698Y012323D01*
X037578Y012262D01*
X037454Y012207D01*
X037328Y012159D01*
X037200Y012116D01*
X037070Y012080D01*
X036938Y012051D01*
X036806Y012028D01*
X036672Y012011D01*
X036537Y012001D01*
X036402Y011998D01*
X036267Y012001D01*
X036132Y012011D01*
X035998Y012028D01*
X035866Y012051D01*
X035734Y012080D01*
X035604Y012116D01*
X035476Y012159D01*
X035350Y012207D01*
X035226Y012262D01*
X035106Y012323D01*
X034988Y012389D01*
X034874Y012461D01*
X034764Y012539D01*
X034657Y012622D01*
X034555Y012710D01*
X034457Y012803D01*
X034364Y012901D01*
X034276Y013003D01*
X034193Y013110D01*
X034115Y013220D01*
X034043Y013334D01*
X033977Y013452D01*
X033916Y013572D01*
X033861Y013696D01*
X033813Y013822D01*
X033770Y013950D01*
X033734Y014080D01*
X033705Y014212D01*
X033682Y014344D01*
X033665Y014478D01*
X033655Y014613D01*
X033652Y014748D01*
X036402Y014498D02*
X036402Y014298D01*
X036402Y015098D02*
X036402Y015198D01*
X036402Y016498D02*
X036402Y016998D01*
X036152Y016748D02*
X036652Y016748D01*
X059461Y002544D02*
X059463Y002617D01*
X059469Y002690D01*
X059479Y002762D01*
X059493Y002834D01*
X059510Y002905D01*
X059532Y002975D01*
X059557Y003044D01*
X059586Y003111D01*
X059618Y003176D01*
X059654Y003240D01*
X059694Y003302D01*
X059736Y003361D01*
X059782Y003418D01*
X059831Y003472D01*
X059883Y003524D01*
X059937Y003573D01*
X059994Y003619D01*
X060053Y003661D01*
X060115Y003701D01*
X060179Y003737D01*
X060244Y003769D01*
X060311Y003798D01*
X060380Y003823D01*
X060450Y003845D01*
X060521Y003862D01*
X060593Y003876D01*
X060665Y003886D01*
X060738Y003892D01*
X060811Y003894D01*
X060884Y003892D01*
X060957Y003886D01*
X061029Y003876D01*
X061101Y003862D01*
X061172Y003845D01*
X061242Y003823D01*
X061311Y003798D01*
X061378Y003769D01*
X061443Y003737D01*
X061507Y003701D01*
X061569Y003661D01*
X061628Y003619D01*
X061685Y003573D01*
X061739Y003524D01*
X061791Y003472D01*
X061840Y003418D01*
X061886Y003361D01*
X061928Y003302D01*
X061968Y003240D01*
X062004Y003176D01*
X062036Y003111D01*
X062065Y003044D01*
X062090Y002975D01*
X062112Y002905D01*
X062129Y002834D01*
X062143Y002762D01*
X062153Y002690D01*
X062159Y002617D01*
X062161Y002544D01*
X062159Y002471D01*
X062153Y002398D01*
X062143Y002326D01*
X062129Y002254D01*
X062112Y002183D01*
X062090Y002113D01*
X062065Y002044D01*
X062036Y001977D01*
X062004Y001912D01*
X061968Y001848D01*
X061928Y001786D01*
X061886Y001727D01*
X061840Y001670D01*
X061791Y001616D01*
X061739Y001564D01*
X061685Y001515D01*
X061628Y001469D01*
X061569Y001427D01*
X061507Y001387D01*
X061443Y001351D01*
X061378Y001319D01*
X061311Y001290D01*
X061242Y001265D01*
X061172Y001243D01*
X061101Y001226D01*
X061029Y001212D01*
X060957Y001202D01*
X060884Y001196D01*
X060811Y001194D01*
X060738Y001196D01*
X060665Y001202D01*
X060593Y001212D01*
X060521Y001226D01*
X060450Y001243D01*
X060380Y001265D01*
X060311Y001290D01*
X060244Y001319D01*
X060179Y001351D01*
X060115Y001387D01*
X060053Y001427D01*
X059994Y001469D01*
X059937Y001515D01*
X059883Y001564D01*
X059831Y001616D01*
X059782Y001670D01*
X059736Y001727D01*
X059694Y001786D01*
X059654Y001848D01*
X059618Y001912D01*
X059586Y001977D01*
X059557Y002044D01*
X059532Y002113D01*
X059510Y002183D01*
X059493Y002254D01*
X059479Y002326D01*
X059469Y002398D01*
X059463Y002471D01*
X059461Y002544D01*
X059461Y037189D02*
X059463Y037262D01*
X059469Y037335D01*
X059479Y037407D01*
X059493Y037479D01*
X059510Y037550D01*
X059532Y037620D01*
X059557Y037689D01*
X059586Y037756D01*
X059618Y037821D01*
X059654Y037885D01*
X059694Y037947D01*
X059736Y038006D01*
X059782Y038063D01*
X059831Y038117D01*
X059883Y038169D01*
X059937Y038218D01*
X059994Y038264D01*
X060053Y038306D01*
X060115Y038346D01*
X060179Y038382D01*
X060244Y038414D01*
X060311Y038443D01*
X060380Y038468D01*
X060450Y038490D01*
X060521Y038507D01*
X060593Y038521D01*
X060665Y038531D01*
X060738Y038537D01*
X060811Y038539D01*
X060884Y038537D01*
X060957Y038531D01*
X061029Y038521D01*
X061101Y038507D01*
X061172Y038490D01*
X061242Y038468D01*
X061311Y038443D01*
X061378Y038414D01*
X061443Y038382D01*
X061507Y038346D01*
X061569Y038306D01*
X061628Y038264D01*
X061685Y038218D01*
X061739Y038169D01*
X061791Y038117D01*
X061840Y038063D01*
X061886Y038006D01*
X061928Y037947D01*
X061968Y037885D01*
X062004Y037821D01*
X062036Y037756D01*
X062065Y037689D01*
X062090Y037620D01*
X062112Y037550D01*
X062129Y037479D01*
X062143Y037407D01*
X062153Y037335D01*
X062159Y037262D01*
X062161Y037189D01*
X062159Y037116D01*
X062153Y037043D01*
X062143Y036971D01*
X062129Y036899D01*
X062112Y036828D01*
X062090Y036758D01*
X062065Y036689D01*
X062036Y036622D01*
X062004Y036557D01*
X061968Y036493D01*
X061928Y036431D01*
X061886Y036372D01*
X061840Y036315D01*
X061791Y036261D01*
X061739Y036209D01*
X061685Y036160D01*
X061628Y036114D01*
X061569Y036072D01*
X061507Y036032D01*
X061443Y035996D01*
X061378Y035964D01*
X061311Y035935D01*
X061242Y035910D01*
X061172Y035888D01*
X061101Y035871D01*
X061029Y035857D01*
X060957Y035847D01*
X060884Y035841D01*
X060811Y035839D01*
X060738Y035841D01*
X060665Y035847D01*
X060593Y035857D01*
X060521Y035871D01*
X060450Y035888D01*
X060380Y035910D01*
X060311Y035935D01*
X060244Y035964D01*
X060179Y035996D01*
X060115Y036032D01*
X060053Y036072D01*
X059994Y036114D01*
X059937Y036160D01*
X059883Y036209D01*
X059831Y036261D01*
X059782Y036315D01*
X059736Y036372D01*
X059694Y036431D01*
X059654Y036493D01*
X059618Y036557D01*
X059586Y036622D01*
X059557Y036689D01*
X059532Y036758D01*
X059510Y036828D01*
X059493Y036899D01*
X059479Y036971D01*
X059469Y037043D01*
X059463Y037116D01*
X059461Y037189D01*
X001587Y002544D02*
X001589Y002617D01*
X001595Y002690D01*
X001605Y002762D01*
X001619Y002834D01*
X001636Y002905D01*
X001658Y002975D01*
X001683Y003044D01*
X001712Y003111D01*
X001744Y003176D01*
X001780Y003240D01*
X001820Y003302D01*
X001862Y003361D01*
X001908Y003418D01*
X001957Y003472D01*
X002009Y003524D01*
X002063Y003573D01*
X002120Y003619D01*
X002179Y003661D01*
X002241Y003701D01*
X002305Y003737D01*
X002370Y003769D01*
X002437Y003798D01*
X002506Y003823D01*
X002576Y003845D01*
X002647Y003862D01*
X002719Y003876D01*
X002791Y003886D01*
X002864Y003892D01*
X002937Y003894D01*
X003010Y003892D01*
X003083Y003886D01*
X003155Y003876D01*
X003227Y003862D01*
X003298Y003845D01*
X003368Y003823D01*
X003437Y003798D01*
X003504Y003769D01*
X003569Y003737D01*
X003633Y003701D01*
X003695Y003661D01*
X003754Y003619D01*
X003811Y003573D01*
X003865Y003524D01*
X003917Y003472D01*
X003966Y003418D01*
X004012Y003361D01*
X004054Y003302D01*
X004094Y003240D01*
X004130Y003176D01*
X004162Y003111D01*
X004191Y003044D01*
X004216Y002975D01*
X004238Y002905D01*
X004255Y002834D01*
X004269Y002762D01*
X004279Y002690D01*
X004285Y002617D01*
X004287Y002544D01*
X004285Y002471D01*
X004279Y002398D01*
X004269Y002326D01*
X004255Y002254D01*
X004238Y002183D01*
X004216Y002113D01*
X004191Y002044D01*
X004162Y001977D01*
X004130Y001912D01*
X004094Y001848D01*
X004054Y001786D01*
X004012Y001727D01*
X003966Y001670D01*
X003917Y001616D01*
X003865Y001564D01*
X003811Y001515D01*
X003754Y001469D01*
X003695Y001427D01*
X003633Y001387D01*
X003569Y001351D01*
X003504Y001319D01*
X003437Y001290D01*
X003368Y001265D01*
X003298Y001243D01*
X003227Y001226D01*
X003155Y001212D01*
X003083Y001202D01*
X003010Y001196D01*
X002937Y001194D01*
X002864Y001196D01*
X002791Y001202D01*
X002719Y001212D01*
X002647Y001226D01*
X002576Y001243D01*
X002506Y001265D01*
X002437Y001290D01*
X002370Y001319D01*
X002305Y001351D01*
X002241Y001387D01*
X002179Y001427D01*
X002120Y001469D01*
X002063Y001515D01*
X002009Y001564D01*
X001957Y001616D01*
X001908Y001670D01*
X001862Y001727D01*
X001820Y001786D01*
X001780Y001848D01*
X001744Y001912D01*
X001712Y001977D01*
X001683Y002044D01*
X001658Y002113D01*
X001636Y002183D01*
X001619Y002254D01*
X001605Y002326D01*
X001595Y002398D01*
X001589Y002471D01*
X001587Y002544D01*
D14*
X044838Y005981D02*
X048438Y005981D01*
X048438Y009231D01*
X044838Y009231D01*
X044838Y005981D01*
X044838Y029715D02*
X044838Y032965D01*
X048438Y032965D01*
X048438Y029715D01*
X044838Y029715D01*
X015961Y033677D02*
X011961Y033677D01*
X011911Y034827D02*
X016011Y034827D01*
X015961Y035977D02*
X011961Y035977D01*
D15*
X011836Y035852D03*
X011836Y033802D03*
X016086Y033802D03*
X016086Y035852D03*
D16*
X016086Y034827D03*
X011836Y034827D03*
D17*
X013961Y033877D03*
X013961Y035777D03*
D18*
X016986Y035602D03*
X016986Y034052D03*
X010936Y034052D03*
X010936Y035602D03*
D19*
X010761Y035727D03*
X010761Y033927D03*
X017161Y033927D03*
X017161Y035727D03*
D20*
X001481Y037189D02*
X001483Y037240D01*
X001489Y037291D01*
X001499Y037341D01*
X001512Y037391D01*
X001530Y037439D01*
X001550Y037486D01*
X001575Y037531D01*
X001603Y037574D01*
X001634Y037615D01*
X001668Y037653D01*
X001705Y037688D01*
X001744Y037721D01*
X001786Y037751D01*
X001830Y037777D01*
X001876Y037799D01*
X001924Y037819D01*
X001973Y037834D01*
X002023Y037846D01*
X002073Y037854D01*
X002124Y037858D01*
X002176Y037858D01*
X002227Y037854D01*
X002277Y037846D01*
X002327Y037834D01*
X002376Y037819D01*
X002424Y037799D01*
X002470Y037777D01*
X002514Y037751D01*
X002556Y037721D01*
X002595Y037688D01*
X002632Y037653D01*
X002666Y037615D01*
X002697Y037574D01*
X002725Y037531D01*
X002750Y037486D01*
X002770Y037439D01*
X002788Y037391D01*
X002801Y037341D01*
X002811Y037291D01*
X002817Y037240D01*
X002819Y037189D01*
X002817Y037138D01*
X002811Y037087D01*
X002801Y037037D01*
X002788Y036987D01*
X002770Y036939D01*
X002750Y036892D01*
X002725Y036847D01*
X002697Y036804D01*
X002666Y036763D01*
X002632Y036725D01*
X002595Y036690D01*
X002556Y036657D01*
X002514Y036627D01*
X002470Y036601D01*
X002424Y036579D01*
X002376Y036559D01*
X002327Y036544D01*
X002277Y036532D01*
X002227Y036524D01*
X002176Y036520D01*
X002124Y036520D01*
X002073Y036524D01*
X002023Y036532D01*
X001973Y036544D01*
X001924Y036559D01*
X001876Y036579D01*
X001830Y036601D01*
X001786Y036627D01*
X001744Y036657D01*
X001705Y036690D01*
X001668Y036725D01*
X001634Y036763D01*
X001603Y036804D01*
X001575Y036847D01*
X001550Y036892D01*
X001530Y036939D01*
X001512Y036987D01*
X001499Y037037D01*
X001489Y037087D01*
X001483Y037138D01*
X001481Y037189D01*
X002071Y022662D02*
X004630Y022662D01*
X004630Y016284D01*
X002071Y016284D01*
X002071Y022662D01*
X004630Y022662D02*
X005024Y022662D01*
X005024Y016284D01*
X004630Y016284D01*
X002268Y002544D02*
X002270Y002595D01*
X002276Y002646D01*
X002286Y002696D01*
X002299Y002746D01*
X002317Y002794D01*
X002337Y002841D01*
X002362Y002886D01*
X002390Y002929D01*
X002421Y002970D01*
X002455Y003008D01*
X002492Y003043D01*
X002531Y003076D01*
X002573Y003106D01*
X002617Y003132D01*
X002663Y003154D01*
X002711Y003174D01*
X002760Y003189D01*
X002810Y003201D01*
X002860Y003209D01*
X002911Y003213D01*
X002963Y003213D01*
X003014Y003209D01*
X003064Y003201D01*
X003114Y003189D01*
X003163Y003174D01*
X003211Y003154D01*
X003257Y003132D01*
X003301Y003106D01*
X003343Y003076D01*
X003382Y003043D01*
X003419Y003008D01*
X003453Y002970D01*
X003484Y002929D01*
X003512Y002886D01*
X003537Y002841D01*
X003557Y002794D01*
X003575Y002746D01*
X003588Y002696D01*
X003598Y002646D01*
X003604Y002595D01*
X003606Y002544D01*
X003604Y002493D01*
X003598Y002442D01*
X003588Y002392D01*
X003575Y002342D01*
X003557Y002294D01*
X003537Y002247D01*
X003512Y002202D01*
X003484Y002159D01*
X003453Y002118D01*
X003419Y002080D01*
X003382Y002045D01*
X003343Y002012D01*
X003301Y001982D01*
X003257Y001956D01*
X003211Y001934D01*
X003163Y001914D01*
X003114Y001899D01*
X003064Y001887D01*
X003014Y001879D01*
X002963Y001875D01*
X002911Y001875D01*
X002860Y001879D01*
X002810Y001887D01*
X002760Y001899D01*
X002711Y001914D01*
X002663Y001934D01*
X002617Y001956D01*
X002573Y001982D01*
X002531Y002012D01*
X002492Y002045D01*
X002455Y002080D01*
X002421Y002118D01*
X002390Y002159D01*
X002362Y002202D01*
X002337Y002247D01*
X002317Y002294D01*
X002299Y002342D01*
X002286Y002392D01*
X002276Y002442D01*
X002270Y002493D01*
X002268Y002544D01*
X040876Y014355D02*
X041376Y014355D01*
X041376Y024591D02*
X040876Y024591D01*
X057805Y023410D02*
X058305Y023410D01*
X059394Y022347D02*
X059709Y022347D01*
X059709Y016402D01*
X059394Y016402D01*
X059394Y022347D01*
X059709Y022347D02*
X062150Y022347D01*
X062150Y016402D01*
X059709Y016402D01*
X058305Y016323D02*
X057805Y016323D01*
X060061Y012599D02*
X061561Y012599D01*
X060142Y002544D02*
X060144Y002595D01*
X060150Y002646D01*
X060160Y002696D01*
X060173Y002746D01*
X060191Y002794D01*
X060211Y002841D01*
X060236Y002886D01*
X060264Y002929D01*
X060295Y002970D01*
X060329Y003008D01*
X060366Y003043D01*
X060405Y003076D01*
X060447Y003106D01*
X060491Y003132D01*
X060537Y003154D01*
X060585Y003174D01*
X060634Y003189D01*
X060684Y003201D01*
X060734Y003209D01*
X060785Y003213D01*
X060837Y003213D01*
X060888Y003209D01*
X060938Y003201D01*
X060988Y003189D01*
X061037Y003174D01*
X061085Y003154D01*
X061131Y003132D01*
X061175Y003106D01*
X061217Y003076D01*
X061256Y003043D01*
X061293Y003008D01*
X061327Y002970D01*
X061358Y002929D01*
X061386Y002886D01*
X061411Y002841D01*
X061431Y002794D01*
X061449Y002746D01*
X061462Y002696D01*
X061472Y002646D01*
X061478Y002595D01*
X061480Y002544D01*
X061478Y002493D01*
X061472Y002442D01*
X061462Y002392D01*
X061449Y002342D01*
X061431Y002294D01*
X061411Y002247D01*
X061386Y002202D01*
X061358Y002159D01*
X061327Y002118D01*
X061293Y002080D01*
X061256Y002045D01*
X061217Y002012D01*
X061175Y001982D01*
X061131Y001956D01*
X061085Y001934D01*
X061037Y001914D01*
X060988Y001899D01*
X060938Y001887D01*
X060888Y001879D01*
X060837Y001875D01*
X060785Y001875D01*
X060734Y001879D01*
X060684Y001887D01*
X060634Y001899D01*
X060585Y001914D01*
X060537Y001934D01*
X060491Y001956D01*
X060447Y001982D01*
X060405Y002012D01*
X060366Y002045D01*
X060329Y002080D01*
X060295Y002118D01*
X060264Y002159D01*
X060236Y002202D01*
X060211Y002247D01*
X060191Y002294D01*
X060173Y002342D01*
X060160Y002392D01*
X060150Y002442D01*
X060144Y002493D01*
X060142Y002544D01*
X059668Y029528D02*
X061168Y029528D01*
X060142Y037189D02*
X060144Y037240D01*
X060150Y037291D01*
X060160Y037341D01*
X060173Y037391D01*
X060191Y037439D01*
X060211Y037486D01*
X060236Y037531D01*
X060264Y037574D01*
X060295Y037615D01*
X060329Y037653D01*
X060366Y037688D01*
X060405Y037721D01*
X060447Y037751D01*
X060491Y037777D01*
X060537Y037799D01*
X060585Y037819D01*
X060634Y037834D01*
X060684Y037846D01*
X060734Y037854D01*
X060785Y037858D01*
X060837Y037858D01*
X060888Y037854D01*
X060938Y037846D01*
X060988Y037834D01*
X061037Y037819D01*
X061085Y037799D01*
X061131Y037777D01*
X061175Y037751D01*
X061217Y037721D01*
X061256Y037688D01*
X061293Y037653D01*
X061327Y037615D01*
X061358Y037574D01*
X061386Y037531D01*
X061411Y037486D01*
X061431Y037439D01*
X061449Y037391D01*
X061462Y037341D01*
X061472Y037291D01*
X061478Y037240D01*
X061480Y037189D01*
X061478Y037138D01*
X061472Y037087D01*
X061462Y037037D01*
X061449Y036987D01*
X061431Y036939D01*
X061411Y036892D01*
X061386Y036847D01*
X061358Y036804D01*
X061327Y036763D01*
X061293Y036725D01*
X061256Y036690D01*
X061217Y036657D01*
X061175Y036627D01*
X061131Y036601D01*
X061085Y036579D01*
X061037Y036559D01*
X060988Y036544D01*
X060938Y036532D01*
X060888Y036524D01*
X060837Y036520D01*
X060785Y036520D01*
X060734Y036524D01*
X060684Y036532D01*
X060634Y036544D01*
X060585Y036559D01*
X060537Y036579D01*
X060491Y036601D01*
X060447Y036627D01*
X060405Y036657D01*
X060366Y036690D01*
X060329Y036725D01*
X060295Y036763D01*
X060264Y036804D01*
X060236Y036847D01*
X060211Y036892D01*
X060191Y036939D01*
X060173Y036987D01*
X060160Y037037D01*
X060150Y037087D01*
X060144Y037138D01*
X060142Y037189D01*
D21*
X059638Y029560D02*
X059692Y029488D01*
X059691Y029489D02*
X059638Y029446D01*
X059587Y029401D01*
X059539Y029352D01*
X059494Y029301D01*
X059451Y029247D01*
X059412Y029191D01*
X059376Y029133D01*
X059343Y029073D01*
X059314Y029012D01*
X059289Y028948D01*
X059267Y028884D01*
X059248Y028818D01*
X059234Y028751D01*
X059223Y028684D01*
X059216Y028616D01*
X059213Y028548D01*
X059214Y028479D01*
X059219Y028411D01*
X059227Y028343D01*
X059240Y028276D01*
X059256Y028210D01*
X059276Y028145D01*
X059299Y028080D01*
X059326Y028018D01*
X059357Y027957D01*
X059391Y027898D01*
X059428Y027840D01*
X059469Y027785D01*
X059513Y027733D01*
X059559Y027683D01*
X059608Y027636D01*
X059660Y027591D01*
X059714Y027550D01*
X059771Y027511D01*
X059830Y027476D01*
X059890Y027445D01*
X059952Y027417D01*
X060016Y027392D01*
X060081Y027371D01*
X060147Y027354D01*
X060214Y027340D01*
X060282Y027331D01*
X060350Y027325D01*
X060418Y027323D01*
X060486Y027325D01*
X060554Y027331D01*
X060622Y027340D01*
X060689Y027354D01*
X060755Y027371D01*
X060820Y027392D01*
X060884Y027417D01*
X060946Y027445D01*
X061006Y027476D01*
X061065Y027511D01*
X061122Y027550D01*
X061176Y027591D01*
X061228Y027636D01*
X061277Y027683D01*
X061323Y027733D01*
X061367Y027785D01*
X061408Y027840D01*
X061445Y027898D01*
X061479Y027957D01*
X061510Y028018D01*
X061537Y028080D01*
X061560Y028145D01*
X061580Y028210D01*
X061596Y028276D01*
X061609Y028343D01*
X061617Y028411D01*
X061622Y028479D01*
X061623Y028548D01*
X061620Y028616D01*
X061613Y028684D01*
X061602Y028751D01*
X061588Y028818D01*
X061569Y028884D01*
X061547Y028948D01*
X061522Y029012D01*
X061493Y029073D01*
X061460Y029133D01*
X061424Y029191D01*
X061385Y029247D01*
X061342Y029301D01*
X061297Y029352D01*
X061249Y029401D01*
X061198Y029446D01*
X061145Y029489D01*
X061198Y029560D01*
X061199Y029561D01*
X061254Y029517D01*
X061307Y029469D01*
X061358Y029419D01*
X061405Y029366D01*
X061449Y029311D01*
X061491Y029253D01*
X061529Y029193D01*
X061564Y029132D01*
X061595Y029068D01*
X061623Y029003D01*
X061647Y028936D01*
X061668Y028868D01*
X061684Y028799D01*
X061697Y028729D01*
X061706Y028659D01*
X061712Y028588D01*
X061713Y028517D01*
X061710Y028446D01*
X061704Y028375D01*
X061694Y028305D01*
X061680Y028236D01*
X061662Y028167D01*
X061640Y028099D01*
X061615Y028033D01*
X061586Y027968D01*
X061553Y027905D01*
X061517Y027844D01*
X061478Y027785D01*
X061436Y027728D01*
X061391Y027673D01*
X061342Y027621D01*
X061291Y027572D01*
X061238Y027525D01*
X061181Y027482D01*
X061123Y027442D01*
X061062Y027405D01*
X061000Y027371D01*
X060936Y027341D01*
X060870Y027314D01*
X060803Y027291D01*
X060734Y027272D01*
X060665Y027257D01*
X060595Y027245D01*
X060524Y027237D01*
X060453Y027233D01*
X060383Y027233D01*
X060312Y027237D01*
X060241Y027245D01*
X060171Y027257D01*
X060102Y027272D01*
X060033Y027291D01*
X059966Y027314D01*
X059900Y027341D01*
X059836Y027371D01*
X059774Y027405D01*
X059713Y027442D01*
X059655Y027482D01*
X059598Y027525D01*
X059545Y027572D01*
X059494Y027621D01*
X059445Y027673D01*
X059400Y027728D01*
X059358Y027785D01*
X059319Y027844D01*
X059283Y027905D01*
X059250Y027968D01*
X059221Y028033D01*
X059196Y028099D01*
X059174Y028167D01*
X059156Y028236D01*
X059142Y028305D01*
X059132Y028375D01*
X059126Y028446D01*
X059123Y028517D01*
X059124Y028588D01*
X059130Y028659D01*
X059139Y028729D01*
X059152Y028799D01*
X059168Y028868D01*
X059189Y028936D01*
X059213Y029003D01*
X059241Y029068D01*
X059272Y029132D01*
X059307Y029193D01*
X059345Y029253D01*
X059387Y029311D01*
X059431Y029366D01*
X059478Y029419D01*
X059529Y029469D01*
X059582Y029517D01*
X059637Y029561D01*
X059642Y029554D01*
X059587Y029509D01*
X059534Y029462D01*
X059483Y029411D01*
X059436Y029358D01*
X059391Y029302D01*
X059350Y029244D01*
X059312Y029184D01*
X059277Y029122D01*
X059246Y029058D01*
X059219Y028992D01*
X059195Y028925D01*
X059175Y028856D01*
X059158Y028787D01*
X059146Y028717D01*
X059137Y028646D01*
X059133Y028575D01*
X059132Y028504D01*
X059136Y028433D01*
X059143Y028362D01*
X059154Y028291D01*
X059169Y028222D01*
X059188Y028153D01*
X059211Y028085D01*
X059237Y028019D01*
X059267Y027954D01*
X059301Y027892D01*
X059337Y027831D01*
X059378Y027772D01*
X059421Y027715D01*
X059468Y027661D01*
X059517Y027610D01*
X059570Y027562D01*
X059624Y027516D01*
X059682Y027474D01*
X059741Y027435D01*
X059803Y027399D01*
X059866Y027366D01*
X059931Y027338D01*
X059998Y027312D01*
X060066Y027291D01*
X060135Y027273D01*
X060205Y027260D01*
X060276Y027250D01*
X060347Y027244D01*
X060418Y027242D01*
X060489Y027244D01*
X060560Y027250D01*
X060631Y027260D01*
X060701Y027273D01*
X060770Y027291D01*
X060838Y027312D01*
X060905Y027338D01*
X060970Y027366D01*
X061033Y027399D01*
X061095Y027435D01*
X061154Y027474D01*
X061212Y027516D01*
X061266Y027562D01*
X061319Y027610D01*
X061368Y027661D01*
X061415Y027715D01*
X061458Y027772D01*
X061499Y027831D01*
X061535Y027892D01*
X061569Y027954D01*
X061599Y028019D01*
X061625Y028085D01*
X061648Y028153D01*
X061667Y028222D01*
X061682Y028291D01*
X061693Y028362D01*
X061700Y028433D01*
X061704Y028504D01*
X061703Y028575D01*
X061699Y028646D01*
X061690Y028717D01*
X061678Y028787D01*
X061661Y028856D01*
X061641Y028925D01*
X061617Y028992D01*
X061590Y029058D01*
X061559Y029122D01*
X061524Y029184D01*
X061486Y029244D01*
X061445Y029302D01*
X061400Y029358D01*
X061353Y029411D01*
X061302Y029462D01*
X061249Y029509D01*
X061194Y029554D01*
X061188Y029547D01*
X061243Y029502D01*
X061296Y029455D01*
X061346Y029405D01*
X061393Y029352D01*
X061437Y029297D01*
X061479Y029239D01*
X061516Y029180D01*
X061551Y029118D01*
X061582Y029054D01*
X061609Y028989D01*
X061633Y028922D01*
X061653Y028854D01*
X061669Y028785D01*
X061681Y028716D01*
X061690Y028645D01*
X061694Y028575D01*
X061695Y028504D01*
X061691Y028433D01*
X061684Y028363D01*
X061673Y028293D01*
X061658Y028224D01*
X061639Y028156D01*
X061617Y028088D01*
X061591Y028023D01*
X061561Y027958D01*
X061528Y027896D01*
X061491Y027836D01*
X061451Y027777D01*
X061408Y027721D01*
X061362Y027667D01*
X061312Y027617D01*
X061261Y027568D01*
X061206Y027523D01*
X061149Y027481D01*
X061090Y027442D01*
X061029Y027407D01*
X060966Y027374D01*
X060901Y027346D01*
X060835Y027321D01*
X060767Y027300D01*
X060699Y027282D01*
X060629Y027269D01*
X060559Y027259D01*
X060489Y027253D01*
X060418Y027251D01*
X060347Y027253D01*
X060277Y027259D01*
X060207Y027269D01*
X060137Y027282D01*
X060069Y027300D01*
X060001Y027321D01*
X059935Y027346D01*
X059870Y027374D01*
X059807Y027407D01*
X059746Y027442D01*
X059687Y027481D01*
X059630Y027523D01*
X059575Y027568D01*
X059524Y027617D01*
X059474Y027667D01*
X059428Y027721D01*
X059385Y027777D01*
X059345Y027836D01*
X059308Y027896D01*
X059275Y027958D01*
X059245Y028023D01*
X059219Y028088D01*
X059197Y028156D01*
X059178Y028224D01*
X059163Y028293D01*
X059152Y028363D01*
X059145Y028433D01*
X059141Y028504D01*
X059142Y028575D01*
X059146Y028645D01*
X059155Y028716D01*
X059167Y028785D01*
X059183Y028854D01*
X059203Y028922D01*
X059227Y028989D01*
X059254Y029054D01*
X059285Y029118D01*
X059320Y029180D01*
X059357Y029239D01*
X059399Y029297D01*
X059443Y029352D01*
X059490Y029405D01*
X059540Y029455D01*
X059593Y029502D01*
X059648Y029547D01*
X059653Y029539D01*
X059598Y029495D01*
X059545Y029447D01*
X059495Y029397D01*
X059447Y029344D01*
X059403Y029288D01*
X059362Y029230D01*
X059325Y029170D01*
X059290Y029108D01*
X059260Y029044D01*
X059233Y028978D01*
X059209Y028911D01*
X059190Y028843D01*
X059174Y028773D01*
X059162Y028703D01*
X059154Y028633D01*
X059150Y028562D01*
X059151Y028491D01*
X059155Y028420D01*
X059163Y028349D01*
X059175Y028279D01*
X059191Y028210D01*
X059210Y028142D01*
X059234Y028074D01*
X059261Y028009D01*
X059292Y027945D01*
X059326Y027883D01*
X059364Y027823D01*
X059406Y027765D01*
X059450Y027709D01*
X059497Y027656D01*
X059548Y027606D01*
X059601Y027559D01*
X059656Y027514D01*
X059714Y027473D01*
X059774Y027436D01*
X059837Y027401D01*
X059901Y027370D01*
X059966Y027343D01*
X060033Y027320D01*
X060102Y027300D01*
X060171Y027284D01*
X060241Y027272D01*
X060312Y027264D01*
X060382Y027260D01*
X060454Y027260D01*
X060524Y027264D01*
X060595Y027272D01*
X060665Y027284D01*
X060734Y027300D01*
X060803Y027320D01*
X060870Y027343D01*
X060935Y027370D01*
X060999Y027401D01*
X061062Y027436D01*
X061122Y027473D01*
X061180Y027514D01*
X061235Y027559D01*
X061288Y027606D01*
X061339Y027656D01*
X061386Y027709D01*
X061430Y027765D01*
X061472Y027823D01*
X061510Y027883D01*
X061544Y027945D01*
X061575Y028009D01*
X061602Y028074D01*
X061626Y028142D01*
X061645Y028210D01*
X061661Y028279D01*
X061673Y028349D01*
X061681Y028420D01*
X061685Y028491D01*
X061686Y028562D01*
X061682Y028633D01*
X061674Y028703D01*
X061662Y028773D01*
X061646Y028843D01*
X061627Y028911D01*
X061603Y028978D01*
X061576Y029044D01*
X061546Y029108D01*
X061511Y029170D01*
X061474Y029230D01*
X061433Y029288D01*
X061389Y029344D01*
X061341Y029397D01*
X061291Y029447D01*
X061238Y029495D01*
X061183Y029539D01*
X061177Y029532D01*
X061232Y029488D01*
X061285Y029441D01*
X061335Y029391D01*
X061382Y029338D01*
X061426Y029283D01*
X061466Y029225D01*
X061504Y029166D01*
X061538Y029104D01*
X061568Y029040D01*
X061595Y028975D01*
X061618Y028908D01*
X061638Y028840D01*
X061653Y028772D01*
X061665Y028702D01*
X061673Y028632D01*
X061677Y028561D01*
X061676Y028491D01*
X061672Y028420D01*
X061664Y028350D01*
X061652Y028281D01*
X061637Y028212D01*
X061617Y028144D01*
X061594Y028078D01*
X061567Y028013D01*
X061536Y027949D01*
X061502Y027887D01*
X061464Y027828D01*
X061423Y027770D01*
X061379Y027715D01*
X061332Y027662D01*
X061282Y027613D01*
X061230Y027566D01*
X061174Y027522D01*
X061117Y027481D01*
X061057Y027443D01*
X060995Y027409D01*
X060932Y027379D01*
X060867Y027352D01*
X060800Y027328D01*
X060732Y027309D01*
X060663Y027293D01*
X060594Y027281D01*
X060524Y027273D01*
X060453Y027269D01*
X060383Y027269D01*
X060312Y027273D01*
X060242Y027281D01*
X060173Y027293D01*
X060104Y027309D01*
X060036Y027328D01*
X059969Y027352D01*
X059904Y027379D01*
X059841Y027409D01*
X059779Y027443D01*
X059719Y027481D01*
X059662Y027522D01*
X059606Y027566D01*
X059554Y027613D01*
X059504Y027662D01*
X059457Y027715D01*
X059413Y027770D01*
X059372Y027828D01*
X059334Y027887D01*
X059300Y027949D01*
X059269Y028013D01*
X059242Y028078D01*
X059219Y028144D01*
X059199Y028212D01*
X059184Y028281D01*
X059172Y028350D01*
X059164Y028420D01*
X059160Y028491D01*
X059159Y028561D01*
X059163Y028632D01*
X059171Y028702D01*
X059183Y028772D01*
X059198Y028840D01*
X059218Y028908D01*
X059241Y028975D01*
X059268Y029040D01*
X059298Y029104D01*
X059332Y029166D01*
X059370Y029225D01*
X059410Y029283D01*
X059454Y029338D01*
X059501Y029391D01*
X059551Y029441D01*
X059604Y029488D01*
X059659Y029532D01*
X059664Y029525D01*
X059609Y029481D01*
X059557Y029434D01*
X059508Y029385D01*
X059461Y029332D01*
X059418Y029278D01*
X059377Y029220D01*
X059340Y029161D01*
X059306Y029100D01*
X059276Y029036D01*
X059249Y028972D01*
X059226Y028905D01*
X059207Y028838D01*
X059192Y028770D01*
X059180Y028701D01*
X059172Y028631D01*
X059168Y028561D01*
X059169Y028491D01*
X059173Y028421D01*
X059181Y028352D01*
X059192Y028283D01*
X059208Y028214D01*
X059227Y028147D01*
X059251Y028081D01*
X059278Y028016D01*
X059308Y027953D01*
X059342Y027892D01*
X059379Y027833D01*
X059420Y027775D01*
X059464Y027721D01*
X059510Y027669D01*
X059560Y027619D01*
X059612Y027572D01*
X059667Y027529D01*
X059724Y027488D01*
X059783Y027451D01*
X059845Y027417D01*
X059908Y027387D01*
X059973Y027360D01*
X060039Y027337D01*
X060106Y027318D01*
X060174Y027302D01*
X060243Y027290D01*
X060313Y027282D01*
X060383Y027278D01*
X060453Y027278D01*
X060523Y027282D01*
X060593Y027290D01*
X060662Y027302D01*
X060730Y027318D01*
X060797Y027337D01*
X060863Y027360D01*
X060928Y027387D01*
X060991Y027417D01*
X061053Y027451D01*
X061112Y027488D01*
X061169Y027529D01*
X061224Y027572D01*
X061276Y027619D01*
X061326Y027669D01*
X061372Y027721D01*
X061416Y027775D01*
X061457Y027833D01*
X061494Y027892D01*
X061528Y027953D01*
X061558Y028016D01*
X061585Y028081D01*
X061609Y028147D01*
X061628Y028214D01*
X061644Y028283D01*
X061655Y028352D01*
X061663Y028421D01*
X061667Y028491D01*
X061668Y028561D01*
X061664Y028631D01*
X061656Y028701D01*
X061644Y028770D01*
X061629Y028838D01*
X061610Y028905D01*
X061587Y028972D01*
X061560Y029036D01*
X061530Y029100D01*
X061496Y029161D01*
X061459Y029220D01*
X061418Y029278D01*
X061375Y029332D01*
X061328Y029385D01*
X061279Y029434D01*
X061227Y029481D01*
X061172Y029525D01*
X061167Y029518D01*
X061221Y029474D01*
X061273Y029428D01*
X061322Y029379D01*
X061368Y029327D01*
X061411Y029272D01*
X061451Y029215D01*
X061488Y029156D01*
X061522Y029095D01*
X061552Y029033D01*
X061578Y028968D01*
X061601Y028903D01*
X061620Y028836D01*
X061636Y028768D01*
X061647Y028699D01*
X061655Y028630D01*
X061659Y028561D01*
X061658Y028491D01*
X061654Y028422D01*
X061647Y028353D01*
X061635Y028284D01*
X061619Y028217D01*
X061600Y028150D01*
X061577Y028084D01*
X061550Y028020D01*
X061520Y027957D01*
X061486Y027896D01*
X061449Y027838D01*
X061409Y027781D01*
X061366Y027727D01*
X061319Y027675D01*
X061270Y027626D01*
X061218Y027579D01*
X061164Y027536D01*
X061107Y027496D01*
X061048Y027459D01*
X060987Y027425D01*
X060924Y027395D01*
X060860Y027368D01*
X060795Y027345D01*
X060728Y027326D01*
X060660Y027311D01*
X060591Y027299D01*
X060522Y027291D01*
X060453Y027287D01*
X060383Y027287D01*
X060314Y027291D01*
X060245Y027299D01*
X060176Y027311D01*
X060108Y027326D01*
X060041Y027345D01*
X059976Y027368D01*
X059912Y027395D01*
X059849Y027425D01*
X059788Y027459D01*
X059729Y027496D01*
X059672Y027536D01*
X059618Y027579D01*
X059566Y027626D01*
X059517Y027675D01*
X059470Y027727D01*
X059427Y027781D01*
X059387Y027838D01*
X059350Y027896D01*
X059316Y027957D01*
X059286Y028020D01*
X059259Y028084D01*
X059236Y028150D01*
X059217Y028217D01*
X059201Y028284D01*
X059189Y028353D01*
X059182Y028422D01*
X059178Y028491D01*
X059177Y028561D01*
X059181Y028630D01*
X059189Y028699D01*
X059200Y028768D01*
X059216Y028836D01*
X059235Y028903D01*
X059258Y028968D01*
X059284Y029033D01*
X059314Y029095D01*
X059348Y029156D01*
X059385Y029215D01*
X059425Y029272D01*
X059468Y029327D01*
X059514Y029379D01*
X059563Y029428D01*
X059615Y029474D01*
X059669Y029518D01*
X059675Y029511D01*
X059621Y029467D01*
X059570Y029421D01*
X059521Y029372D01*
X059475Y029321D01*
X059432Y029267D01*
X059392Y029210D01*
X059356Y029152D01*
X059322Y029091D01*
X059292Y029029D01*
X059266Y028965D01*
X059244Y028900D01*
X059225Y028834D01*
X059209Y028766D01*
X059198Y028698D01*
X059190Y028630D01*
X059186Y028561D01*
X059187Y028492D01*
X059191Y028423D01*
X059198Y028354D01*
X059210Y028286D01*
X059225Y028219D01*
X059245Y028152D01*
X059268Y028087D01*
X059294Y028024D01*
X059324Y027961D01*
X059357Y027901D01*
X059394Y027843D01*
X059434Y027786D01*
X059477Y027732D01*
X059523Y027681D01*
X059572Y027632D01*
X059624Y027586D01*
X059678Y027543D01*
X059734Y027503D01*
X059793Y027467D01*
X059853Y027433D01*
X059915Y027403D01*
X059979Y027377D01*
X060044Y027354D01*
X060111Y027335D01*
X060178Y027320D01*
X060246Y027308D01*
X060315Y027300D01*
X060383Y027296D01*
X060453Y027296D01*
X060521Y027300D01*
X060590Y027308D01*
X060658Y027320D01*
X060725Y027335D01*
X060792Y027354D01*
X060857Y027377D01*
X060921Y027403D01*
X060983Y027433D01*
X061043Y027467D01*
X061102Y027503D01*
X061158Y027543D01*
X061212Y027586D01*
X061264Y027632D01*
X061313Y027681D01*
X061359Y027732D01*
X061402Y027786D01*
X061442Y027843D01*
X061479Y027901D01*
X061512Y027961D01*
X061542Y028024D01*
X061568Y028087D01*
X061591Y028152D01*
X061611Y028219D01*
X061626Y028286D01*
X061638Y028354D01*
X061645Y028423D01*
X061649Y028492D01*
X061650Y028561D01*
X061646Y028630D01*
X061638Y028698D01*
X061627Y028766D01*
X061611Y028834D01*
X061592Y028900D01*
X061570Y028965D01*
X061544Y029029D01*
X061514Y029091D01*
X061480Y029152D01*
X061444Y029210D01*
X061404Y029267D01*
X061361Y029321D01*
X061315Y029372D01*
X061266Y029421D01*
X061215Y029467D01*
X061161Y029511D01*
X061156Y029503D01*
X061210Y029460D01*
X061261Y029414D01*
X061310Y029364D01*
X061356Y029313D01*
X061399Y029258D01*
X061439Y029201D01*
X061475Y029143D01*
X061509Y029082D01*
X061538Y029019D01*
X061564Y028955D01*
X061586Y028889D01*
X061605Y028822D01*
X061620Y028755D01*
X061631Y028686D01*
X061638Y028617D01*
X061641Y028548D01*
X061640Y028479D01*
X061635Y028409D01*
X061627Y028341D01*
X061614Y028273D01*
X061598Y028205D01*
X061577Y028139D01*
X061554Y028074D01*
X061526Y028010D01*
X061495Y027948D01*
X061460Y027888D01*
X061422Y027830D01*
X061381Y027774D01*
X061337Y027721D01*
X061290Y027670D01*
X061240Y027622D01*
X061187Y027577D01*
X061132Y027535D01*
X061075Y027496D01*
X061015Y027461D01*
X060954Y027429D01*
X060891Y027400D01*
X060826Y027375D01*
X060760Y027354D01*
X060693Y027336D01*
X060625Y027323D01*
X060556Y027313D01*
X060487Y027307D01*
X060418Y027305D01*
X060349Y027307D01*
X060280Y027313D01*
X060211Y027323D01*
X060143Y027336D01*
X060076Y027354D01*
X060010Y027375D01*
X059945Y027400D01*
X059882Y027429D01*
X059821Y027461D01*
X059761Y027496D01*
X059704Y027535D01*
X059649Y027577D01*
X059596Y027622D01*
X059546Y027670D01*
X059499Y027721D01*
X059455Y027774D01*
X059414Y027830D01*
X059376Y027888D01*
X059341Y027948D01*
X059310Y028010D01*
X059282Y028074D01*
X059259Y028139D01*
X059238Y028205D01*
X059222Y028273D01*
X059209Y028341D01*
X059201Y028409D01*
X059196Y028479D01*
X059195Y028548D01*
X059198Y028617D01*
X059205Y028686D01*
X059216Y028755D01*
X059231Y028822D01*
X059250Y028889D01*
X059272Y028955D01*
X059298Y029019D01*
X059327Y029082D01*
X059361Y029143D01*
X059397Y029201D01*
X059437Y029258D01*
X059480Y029313D01*
X059526Y029364D01*
X059575Y029414D01*
X059626Y029460D01*
X059680Y029503D01*
X059686Y029496D01*
X059632Y029453D01*
X059581Y029407D01*
X059532Y029358D01*
X059487Y029307D01*
X059444Y029253D01*
X059405Y029196D01*
X059368Y029138D01*
X059335Y029078D01*
X059306Y029015D01*
X059280Y028952D01*
X059258Y028886D01*
X059240Y028820D01*
X059225Y028753D01*
X059214Y028685D01*
X059207Y028616D01*
X059204Y028548D01*
X059205Y028479D01*
X059210Y028410D01*
X059218Y028342D01*
X059231Y028274D01*
X059247Y028208D01*
X059267Y028142D01*
X059291Y028077D01*
X059318Y028014D01*
X059349Y027953D01*
X059383Y027893D01*
X059421Y027835D01*
X059462Y027780D01*
X059506Y027727D01*
X059553Y027677D01*
X059602Y027629D01*
X059654Y027584D01*
X059709Y027542D01*
X059766Y027504D01*
X059825Y027469D01*
X059886Y027437D01*
X059949Y027408D01*
X060013Y027384D01*
X060079Y027362D01*
X060145Y027345D01*
X060213Y027332D01*
X060281Y027322D01*
X060349Y027316D01*
X060418Y027314D01*
X060487Y027316D01*
X060555Y027322D01*
X060623Y027332D01*
X060691Y027345D01*
X060757Y027362D01*
X060823Y027384D01*
X060887Y027408D01*
X060950Y027437D01*
X061011Y027469D01*
X061070Y027504D01*
X061127Y027542D01*
X061182Y027584D01*
X061234Y027629D01*
X061283Y027677D01*
X061330Y027727D01*
X061374Y027780D01*
X061415Y027835D01*
X061453Y027893D01*
X061487Y027953D01*
X061518Y028014D01*
X061545Y028077D01*
X061569Y028142D01*
X061589Y028208D01*
X061605Y028274D01*
X061618Y028342D01*
X061626Y028410D01*
X061631Y028479D01*
X061632Y028548D01*
X061629Y028616D01*
X061622Y028685D01*
X061611Y028753D01*
X061596Y028820D01*
X061578Y028886D01*
X061556Y028952D01*
X061530Y029015D01*
X061501Y029078D01*
X061468Y029138D01*
X061431Y029196D01*
X061392Y029253D01*
X061349Y029307D01*
X061304Y029358D01*
X061255Y029407D01*
X061204Y029453D01*
X061150Y029496D01*
X058585Y023668D02*
X058685Y023567D01*
X058710Y023567D01*
X058685Y023520D02*
X058710Y023495D01*
X058710Y023445D01*
X058685Y023420D01*
X058585Y023420D01*
X058560Y023445D01*
X058560Y023495D01*
X058585Y023520D01*
X058560Y023567D02*
X058560Y023668D01*
X058585Y023668D01*
X061816Y021874D02*
X061816Y021824D01*
X061841Y021799D01*
X061841Y021752D02*
X061891Y021752D01*
X061916Y021727D01*
X061916Y021652D01*
X061966Y021652D02*
X061816Y021652D01*
X061816Y021727D01*
X061841Y021752D01*
X061816Y021874D02*
X061841Y021899D01*
X061866Y021899D01*
X061966Y021799D01*
X061966Y021899D01*
X061941Y021579D02*
X061816Y021579D01*
X061816Y021554D02*
X061816Y021604D01*
X061941Y021579D02*
X061966Y021554D01*
X061966Y021529D01*
X061941Y021504D01*
X058685Y016581D02*
X058710Y016556D01*
X058710Y016506D01*
X058685Y016481D01*
X058660Y016481D01*
X058635Y016506D01*
X058635Y016556D01*
X058660Y016581D01*
X058685Y016581D01*
X058635Y016556D02*
X058610Y016581D01*
X058585Y016581D01*
X058560Y016556D01*
X058560Y016506D01*
X058585Y016481D01*
X058610Y016481D01*
X058635Y016506D01*
X058585Y016434D02*
X058560Y016409D01*
X058560Y016359D01*
X058585Y016334D01*
X058685Y016334D01*
X058710Y016359D01*
X058710Y016409D01*
X058685Y016434D01*
X060031Y012631D02*
X060085Y012559D01*
X060084Y012560D02*
X060031Y012517D01*
X059980Y012472D01*
X059932Y012423D01*
X059887Y012372D01*
X059844Y012318D01*
X059805Y012262D01*
X059769Y012204D01*
X059736Y012144D01*
X059707Y012083D01*
X059682Y012019D01*
X059660Y011955D01*
X059641Y011889D01*
X059627Y011822D01*
X059616Y011755D01*
X059609Y011687D01*
X059606Y011619D01*
X059607Y011550D01*
X059612Y011482D01*
X059620Y011414D01*
X059633Y011347D01*
X059649Y011281D01*
X059669Y011216D01*
X059692Y011151D01*
X059719Y011089D01*
X059750Y011028D01*
X059784Y010969D01*
X059821Y010911D01*
X059862Y010856D01*
X059906Y010804D01*
X059952Y010754D01*
X060001Y010707D01*
X060053Y010662D01*
X060107Y010621D01*
X060164Y010582D01*
X060223Y010547D01*
X060283Y010516D01*
X060345Y010488D01*
X060409Y010463D01*
X060474Y010442D01*
X060540Y010425D01*
X060607Y010411D01*
X060675Y010402D01*
X060743Y010396D01*
X060811Y010394D01*
X060879Y010396D01*
X060947Y010402D01*
X061015Y010411D01*
X061082Y010425D01*
X061148Y010442D01*
X061213Y010463D01*
X061277Y010488D01*
X061339Y010516D01*
X061399Y010547D01*
X061458Y010582D01*
X061515Y010621D01*
X061569Y010662D01*
X061621Y010707D01*
X061670Y010754D01*
X061716Y010804D01*
X061760Y010856D01*
X061801Y010911D01*
X061838Y010969D01*
X061872Y011028D01*
X061903Y011089D01*
X061930Y011151D01*
X061953Y011216D01*
X061973Y011281D01*
X061989Y011347D01*
X062002Y011414D01*
X062010Y011482D01*
X062015Y011550D01*
X062016Y011619D01*
X062013Y011687D01*
X062006Y011755D01*
X061995Y011822D01*
X061981Y011889D01*
X061962Y011955D01*
X061940Y012019D01*
X061915Y012083D01*
X061886Y012144D01*
X061853Y012204D01*
X061817Y012262D01*
X061778Y012318D01*
X061735Y012372D01*
X061690Y012423D01*
X061642Y012472D01*
X061591Y012517D01*
X061538Y012560D01*
X061591Y012631D01*
X061592Y012632D01*
X061647Y012588D01*
X061700Y012540D01*
X061751Y012490D01*
X061798Y012437D01*
X061842Y012382D01*
X061884Y012324D01*
X061922Y012264D01*
X061957Y012203D01*
X061988Y012139D01*
X062016Y012074D01*
X062040Y012007D01*
X062061Y011939D01*
X062077Y011870D01*
X062090Y011800D01*
X062099Y011730D01*
X062105Y011659D01*
X062106Y011588D01*
X062103Y011517D01*
X062097Y011446D01*
X062087Y011376D01*
X062073Y011307D01*
X062055Y011238D01*
X062033Y011170D01*
X062008Y011104D01*
X061979Y011039D01*
X061946Y010976D01*
X061910Y010915D01*
X061871Y010856D01*
X061829Y010799D01*
X061784Y010744D01*
X061735Y010692D01*
X061684Y010643D01*
X061631Y010596D01*
X061574Y010553D01*
X061516Y010513D01*
X061455Y010476D01*
X061393Y010442D01*
X061329Y010412D01*
X061263Y010385D01*
X061196Y010362D01*
X061127Y010343D01*
X061058Y010328D01*
X060988Y010316D01*
X060917Y010308D01*
X060846Y010304D01*
X060776Y010304D01*
X060705Y010308D01*
X060634Y010316D01*
X060564Y010328D01*
X060495Y010343D01*
X060426Y010362D01*
X060359Y010385D01*
X060293Y010412D01*
X060229Y010442D01*
X060167Y010476D01*
X060106Y010513D01*
X060048Y010553D01*
X059991Y010596D01*
X059938Y010643D01*
X059887Y010692D01*
X059838Y010744D01*
X059793Y010799D01*
X059751Y010856D01*
X059712Y010915D01*
X059676Y010976D01*
X059643Y011039D01*
X059614Y011104D01*
X059589Y011170D01*
X059567Y011238D01*
X059549Y011307D01*
X059535Y011376D01*
X059525Y011446D01*
X059519Y011517D01*
X059516Y011588D01*
X059517Y011659D01*
X059523Y011730D01*
X059532Y011800D01*
X059545Y011870D01*
X059561Y011939D01*
X059582Y012007D01*
X059606Y012074D01*
X059634Y012139D01*
X059665Y012203D01*
X059700Y012264D01*
X059738Y012324D01*
X059780Y012382D01*
X059824Y012437D01*
X059871Y012490D01*
X059922Y012540D01*
X059975Y012588D01*
X060030Y012632D01*
X060035Y012625D01*
X059980Y012580D01*
X059927Y012533D01*
X059876Y012482D01*
X059829Y012429D01*
X059784Y012373D01*
X059743Y012315D01*
X059705Y012255D01*
X059670Y012193D01*
X059639Y012129D01*
X059612Y012063D01*
X059588Y011996D01*
X059568Y011927D01*
X059551Y011858D01*
X059539Y011788D01*
X059530Y011717D01*
X059526Y011646D01*
X059525Y011575D01*
X059529Y011504D01*
X059536Y011433D01*
X059547Y011362D01*
X059562Y011293D01*
X059581Y011224D01*
X059604Y011156D01*
X059630Y011090D01*
X059660Y011025D01*
X059694Y010963D01*
X059730Y010902D01*
X059771Y010843D01*
X059814Y010786D01*
X059861Y010732D01*
X059910Y010681D01*
X059963Y010633D01*
X060017Y010587D01*
X060075Y010545D01*
X060134Y010506D01*
X060196Y010470D01*
X060259Y010437D01*
X060324Y010409D01*
X060391Y010383D01*
X060459Y010362D01*
X060528Y010344D01*
X060598Y010331D01*
X060669Y010321D01*
X060740Y010315D01*
X060811Y010313D01*
X060882Y010315D01*
X060953Y010321D01*
X061024Y010331D01*
X061094Y010344D01*
X061163Y010362D01*
X061231Y010383D01*
X061298Y010409D01*
X061363Y010437D01*
X061426Y010470D01*
X061488Y010506D01*
X061547Y010545D01*
X061605Y010587D01*
X061659Y010633D01*
X061712Y010681D01*
X061761Y010732D01*
X061808Y010786D01*
X061851Y010843D01*
X061892Y010902D01*
X061928Y010963D01*
X061962Y011025D01*
X061992Y011090D01*
X062018Y011156D01*
X062041Y011224D01*
X062060Y011293D01*
X062075Y011362D01*
X062086Y011433D01*
X062093Y011504D01*
X062097Y011575D01*
X062096Y011646D01*
X062092Y011717D01*
X062083Y011788D01*
X062071Y011858D01*
X062054Y011927D01*
X062034Y011996D01*
X062010Y012063D01*
X061983Y012129D01*
X061952Y012193D01*
X061917Y012255D01*
X061879Y012315D01*
X061838Y012373D01*
X061793Y012429D01*
X061746Y012482D01*
X061695Y012533D01*
X061642Y012580D01*
X061587Y012625D01*
X061581Y012618D01*
X061636Y012573D01*
X061689Y012526D01*
X061739Y012476D01*
X061786Y012423D01*
X061830Y012368D01*
X061872Y012310D01*
X061909Y012251D01*
X061944Y012189D01*
X061975Y012125D01*
X062002Y012060D01*
X062026Y011993D01*
X062046Y011925D01*
X062062Y011856D01*
X062074Y011787D01*
X062083Y011716D01*
X062087Y011646D01*
X062088Y011575D01*
X062084Y011504D01*
X062077Y011434D01*
X062066Y011364D01*
X062051Y011295D01*
X062032Y011227D01*
X062010Y011159D01*
X061984Y011094D01*
X061954Y011029D01*
X061921Y010967D01*
X061884Y010907D01*
X061844Y010848D01*
X061801Y010792D01*
X061755Y010738D01*
X061705Y010688D01*
X061654Y010639D01*
X061599Y010594D01*
X061542Y010552D01*
X061483Y010513D01*
X061422Y010478D01*
X061359Y010445D01*
X061294Y010417D01*
X061228Y010392D01*
X061160Y010371D01*
X061092Y010353D01*
X061022Y010340D01*
X060952Y010330D01*
X060882Y010324D01*
X060811Y010322D01*
X060740Y010324D01*
X060670Y010330D01*
X060600Y010340D01*
X060530Y010353D01*
X060462Y010371D01*
X060394Y010392D01*
X060328Y010417D01*
X060263Y010445D01*
X060200Y010478D01*
X060139Y010513D01*
X060080Y010552D01*
X060023Y010594D01*
X059968Y010639D01*
X059917Y010688D01*
X059867Y010738D01*
X059821Y010792D01*
X059778Y010848D01*
X059738Y010907D01*
X059701Y010967D01*
X059668Y011029D01*
X059638Y011094D01*
X059612Y011159D01*
X059590Y011227D01*
X059571Y011295D01*
X059556Y011364D01*
X059545Y011434D01*
X059538Y011504D01*
X059534Y011575D01*
X059535Y011646D01*
X059539Y011716D01*
X059548Y011787D01*
X059560Y011856D01*
X059576Y011925D01*
X059596Y011993D01*
X059620Y012060D01*
X059647Y012125D01*
X059678Y012189D01*
X059713Y012251D01*
X059750Y012310D01*
X059792Y012368D01*
X059836Y012423D01*
X059883Y012476D01*
X059933Y012526D01*
X059986Y012573D01*
X060041Y012618D01*
X060046Y012610D01*
X059991Y012566D01*
X059938Y012518D01*
X059888Y012468D01*
X059840Y012415D01*
X059796Y012359D01*
X059755Y012301D01*
X059718Y012241D01*
X059683Y012179D01*
X059653Y012115D01*
X059626Y012049D01*
X059602Y011982D01*
X059583Y011914D01*
X059567Y011844D01*
X059555Y011774D01*
X059547Y011704D01*
X059543Y011633D01*
X059544Y011562D01*
X059548Y011491D01*
X059556Y011420D01*
X059568Y011350D01*
X059584Y011281D01*
X059603Y011213D01*
X059627Y011145D01*
X059654Y011080D01*
X059685Y011016D01*
X059719Y010954D01*
X059757Y010894D01*
X059799Y010836D01*
X059843Y010780D01*
X059890Y010727D01*
X059941Y010677D01*
X059994Y010630D01*
X060049Y010585D01*
X060107Y010544D01*
X060167Y010507D01*
X060230Y010472D01*
X060294Y010441D01*
X060359Y010414D01*
X060426Y010391D01*
X060495Y010371D01*
X060564Y010355D01*
X060634Y010343D01*
X060705Y010335D01*
X060775Y010331D01*
X060847Y010331D01*
X060917Y010335D01*
X060988Y010343D01*
X061058Y010355D01*
X061127Y010371D01*
X061196Y010391D01*
X061263Y010414D01*
X061328Y010441D01*
X061392Y010472D01*
X061455Y010507D01*
X061515Y010544D01*
X061573Y010585D01*
X061628Y010630D01*
X061681Y010677D01*
X061732Y010727D01*
X061779Y010780D01*
X061823Y010836D01*
X061865Y010894D01*
X061903Y010954D01*
X061937Y011016D01*
X061968Y011080D01*
X061995Y011145D01*
X062019Y011213D01*
X062038Y011281D01*
X062054Y011350D01*
X062066Y011420D01*
X062074Y011491D01*
X062078Y011562D01*
X062079Y011633D01*
X062075Y011704D01*
X062067Y011774D01*
X062055Y011844D01*
X062039Y011914D01*
X062020Y011982D01*
X061996Y012049D01*
X061969Y012115D01*
X061939Y012179D01*
X061904Y012241D01*
X061867Y012301D01*
X061826Y012359D01*
X061782Y012415D01*
X061734Y012468D01*
X061684Y012518D01*
X061631Y012566D01*
X061576Y012610D01*
X061570Y012603D01*
X061625Y012559D01*
X061678Y012512D01*
X061728Y012462D01*
X061775Y012409D01*
X061819Y012354D01*
X061859Y012296D01*
X061897Y012237D01*
X061931Y012175D01*
X061961Y012111D01*
X061988Y012046D01*
X062011Y011979D01*
X062031Y011911D01*
X062046Y011843D01*
X062058Y011773D01*
X062066Y011703D01*
X062070Y011632D01*
X062069Y011562D01*
X062065Y011491D01*
X062057Y011421D01*
X062045Y011352D01*
X062030Y011283D01*
X062010Y011215D01*
X061987Y011149D01*
X061960Y011084D01*
X061929Y011020D01*
X061895Y010958D01*
X061857Y010899D01*
X061816Y010841D01*
X061772Y010786D01*
X061725Y010733D01*
X061675Y010684D01*
X061623Y010637D01*
X061567Y010593D01*
X061510Y010552D01*
X061450Y010514D01*
X061388Y010480D01*
X061325Y010450D01*
X061260Y010423D01*
X061193Y010399D01*
X061125Y010380D01*
X061056Y010364D01*
X060987Y010352D01*
X060917Y010344D01*
X060846Y010340D01*
X060776Y010340D01*
X060705Y010344D01*
X060635Y010352D01*
X060566Y010364D01*
X060497Y010380D01*
X060429Y010399D01*
X060362Y010423D01*
X060297Y010450D01*
X060234Y010480D01*
X060172Y010514D01*
X060112Y010552D01*
X060055Y010593D01*
X059999Y010637D01*
X059947Y010684D01*
X059897Y010733D01*
X059850Y010786D01*
X059806Y010841D01*
X059765Y010899D01*
X059727Y010958D01*
X059693Y011020D01*
X059662Y011084D01*
X059635Y011149D01*
X059612Y011215D01*
X059592Y011283D01*
X059577Y011352D01*
X059565Y011421D01*
X059557Y011491D01*
X059553Y011562D01*
X059552Y011632D01*
X059556Y011703D01*
X059564Y011773D01*
X059576Y011843D01*
X059591Y011911D01*
X059611Y011979D01*
X059634Y012046D01*
X059661Y012111D01*
X059691Y012175D01*
X059725Y012237D01*
X059763Y012296D01*
X059803Y012354D01*
X059847Y012409D01*
X059894Y012462D01*
X059944Y012512D01*
X059997Y012559D01*
X060052Y012603D01*
X060057Y012596D01*
X060002Y012552D01*
X059950Y012505D01*
X059901Y012456D01*
X059854Y012403D01*
X059811Y012349D01*
X059770Y012291D01*
X059733Y012232D01*
X059699Y012171D01*
X059669Y012107D01*
X059642Y012043D01*
X059619Y011976D01*
X059600Y011909D01*
X059585Y011841D01*
X059573Y011772D01*
X059565Y011702D01*
X059561Y011632D01*
X059562Y011562D01*
X059566Y011492D01*
X059574Y011423D01*
X059585Y011354D01*
X059601Y011285D01*
X059620Y011218D01*
X059644Y011152D01*
X059671Y011087D01*
X059701Y011024D01*
X059735Y010963D01*
X059772Y010904D01*
X059813Y010846D01*
X059857Y010792D01*
X059903Y010740D01*
X059953Y010690D01*
X060005Y010643D01*
X060060Y010600D01*
X060117Y010559D01*
X060176Y010522D01*
X060238Y010488D01*
X060301Y010458D01*
X060366Y010431D01*
X060432Y010408D01*
X060499Y010389D01*
X060567Y010373D01*
X060636Y010361D01*
X060706Y010353D01*
X060776Y010349D01*
X060846Y010349D01*
X060916Y010353D01*
X060986Y010361D01*
X061055Y010373D01*
X061123Y010389D01*
X061190Y010408D01*
X061256Y010431D01*
X061321Y010458D01*
X061384Y010488D01*
X061446Y010522D01*
X061505Y010559D01*
X061562Y010600D01*
X061617Y010643D01*
X061669Y010690D01*
X061719Y010740D01*
X061765Y010792D01*
X061809Y010846D01*
X061850Y010904D01*
X061887Y010963D01*
X061921Y011024D01*
X061951Y011087D01*
X061978Y011152D01*
X062002Y011218D01*
X062021Y011285D01*
X062037Y011354D01*
X062048Y011423D01*
X062056Y011492D01*
X062060Y011562D01*
X062061Y011632D01*
X062057Y011702D01*
X062049Y011772D01*
X062037Y011841D01*
X062022Y011909D01*
X062003Y011976D01*
X061980Y012043D01*
X061953Y012107D01*
X061923Y012171D01*
X061889Y012232D01*
X061852Y012291D01*
X061811Y012349D01*
X061768Y012403D01*
X061721Y012456D01*
X061672Y012505D01*
X061620Y012552D01*
X061565Y012596D01*
X061560Y012589D01*
X061614Y012545D01*
X061666Y012499D01*
X061715Y012450D01*
X061761Y012398D01*
X061804Y012343D01*
X061844Y012286D01*
X061881Y012227D01*
X061915Y012166D01*
X061945Y012104D01*
X061971Y012039D01*
X061994Y011974D01*
X062013Y011907D01*
X062029Y011839D01*
X062040Y011770D01*
X062048Y011701D01*
X062052Y011632D01*
X062051Y011562D01*
X062047Y011493D01*
X062040Y011424D01*
X062028Y011355D01*
X062012Y011288D01*
X061993Y011221D01*
X061970Y011155D01*
X061943Y011091D01*
X061913Y011028D01*
X061879Y010967D01*
X061842Y010909D01*
X061802Y010852D01*
X061759Y010798D01*
X061712Y010746D01*
X061663Y010697D01*
X061611Y010650D01*
X061557Y010607D01*
X061500Y010567D01*
X061441Y010530D01*
X061380Y010496D01*
X061317Y010466D01*
X061253Y010439D01*
X061188Y010416D01*
X061121Y010397D01*
X061053Y010382D01*
X060984Y010370D01*
X060915Y010362D01*
X060846Y010358D01*
X060776Y010358D01*
X060707Y010362D01*
X060638Y010370D01*
X060569Y010382D01*
X060501Y010397D01*
X060434Y010416D01*
X060369Y010439D01*
X060305Y010466D01*
X060242Y010496D01*
X060181Y010530D01*
X060122Y010567D01*
X060065Y010607D01*
X060011Y010650D01*
X059959Y010697D01*
X059910Y010746D01*
X059863Y010798D01*
X059820Y010852D01*
X059780Y010909D01*
X059743Y010967D01*
X059709Y011028D01*
X059679Y011091D01*
X059652Y011155D01*
X059629Y011221D01*
X059610Y011288D01*
X059594Y011355D01*
X059582Y011424D01*
X059575Y011493D01*
X059571Y011562D01*
X059570Y011632D01*
X059574Y011701D01*
X059582Y011770D01*
X059593Y011839D01*
X059609Y011907D01*
X059628Y011974D01*
X059651Y012039D01*
X059677Y012104D01*
X059707Y012166D01*
X059741Y012227D01*
X059778Y012286D01*
X059818Y012343D01*
X059861Y012398D01*
X059907Y012450D01*
X059956Y012499D01*
X060008Y012545D01*
X060062Y012589D01*
X060068Y012582D01*
X060014Y012538D01*
X059963Y012492D01*
X059914Y012443D01*
X059868Y012392D01*
X059825Y012338D01*
X059785Y012281D01*
X059749Y012223D01*
X059715Y012162D01*
X059685Y012100D01*
X059659Y012036D01*
X059637Y011971D01*
X059618Y011905D01*
X059602Y011837D01*
X059591Y011769D01*
X059583Y011701D01*
X059579Y011632D01*
X059580Y011563D01*
X059584Y011494D01*
X059591Y011425D01*
X059603Y011357D01*
X059618Y011290D01*
X059638Y011223D01*
X059661Y011158D01*
X059687Y011095D01*
X059717Y011032D01*
X059750Y010972D01*
X059787Y010914D01*
X059827Y010857D01*
X059870Y010803D01*
X059916Y010752D01*
X059965Y010703D01*
X060017Y010657D01*
X060071Y010614D01*
X060127Y010574D01*
X060186Y010538D01*
X060246Y010504D01*
X060308Y010474D01*
X060372Y010448D01*
X060437Y010425D01*
X060504Y010406D01*
X060571Y010391D01*
X060639Y010379D01*
X060708Y010371D01*
X060776Y010367D01*
X060846Y010367D01*
X060914Y010371D01*
X060983Y010379D01*
X061051Y010391D01*
X061118Y010406D01*
X061185Y010425D01*
X061250Y010448D01*
X061314Y010474D01*
X061376Y010504D01*
X061436Y010538D01*
X061495Y010574D01*
X061551Y010614D01*
X061605Y010657D01*
X061657Y010703D01*
X061706Y010752D01*
X061752Y010803D01*
X061795Y010857D01*
X061835Y010914D01*
X061872Y010972D01*
X061905Y011032D01*
X061935Y011095D01*
X061961Y011158D01*
X061984Y011223D01*
X062004Y011290D01*
X062019Y011357D01*
X062031Y011425D01*
X062038Y011494D01*
X062042Y011563D01*
X062043Y011632D01*
X062039Y011701D01*
X062031Y011769D01*
X062020Y011837D01*
X062004Y011905D01*
X061985Y011971D01*
X061963Y012036D01*
X061937Y012100D01*
X061907Y012162D01*
X061873Y012223D01*
X061837Y012281D01*
X061797Y012338D01*
X061754Y012392D01*
X061708Y012443D01*
X061659Y012492D01*
X061608Y012538D01*
X061554Y012582D01*
X061549Y012574D01*
X061603Y012531D01*
X061654Y012485D01*
X061703Y012435D01*
X061749Y012384D01*
X061792Y012329D01*
X061832Y012272D01*
X061868Y012214D01*
X061902Y012153D01*
X061931Y012090D01*
X061957Y012026D01*
X061979Y011960D01*
X061998Y011893D01*
X062013Y011826D01*
X062024Y011757D01*
X062031Y011688D01*
X062034Y011619D01*
X062033Y011550D01*
X062028Y011480D01*
X062020Y011412D01*
X062007Y011344D01*
X061991Y011276D01*
X061970Y011210D01*
X061947Y011145D01*
X061919Y011081D01*
X061888Y011019D01*
X061853Y010959D01*
X061815Y010901D01*
X061774Y010845D01*
X061730Y010792D01*
X061683Y010741D01*
X061633Y010693D01*
X061580Y010648D01*
X061525Y010606D01*
X061468Y010567D01*
X061408Y010532D01*
X061347Y010500D01*
X061284Y010471D01*
X061219Y010446D01*
X061153Y010425D01*
X061086Y010407D01*
X061018Y010394D01*
X060949Y010384D01*
X060880Y010378D01*
X060811Y010376D01*
X060742Y010378D01*
X060673Y010384D01*
X060604Y010394D01*
X060536Y010407D01*
X060469Y010425D01*
X060403Y010446D01*
X060338Y010471D01*
X060275Y010500D01*
X060214Y010532D01*
X060154Y010567D01*
X060097Y010606D01*
X060042Y010648D01*
X059989Y010693D01*
X059939Y010741D01*
X059892Y010792D01*
X059848Y010845D01*
X059807Y010901D01*
X059769Y010959D01*
X059734Y011019D01*
X059703Y011081D01*
X059675Y011145D01*
X059652Y011210D01*
X059631Y011276D01*
X059615Y011344D01*
X059602Y011412D01*
X059594Y011480D01*
X059589Y011550D01*
X059588Y011619D01*
X059591Y011688D01*
X059598Y011757D01*
X059609Y011826D01*
X059624Y011893D01*
X059643Y011960D01*
X059665Y012026D01*
X059691Y012090D01*
X059720Y012153D01*
X059754Y012214D01*
X059790Y012272D01*
X059830Y012329D01*
X059873Y012384D01*
X059919Y012435D01*
X059968Y012485D01*
X060019Y012531D01*
X060073Y012574D01*
X060079Y012567D01*
X060025Y012524D01*
X059974Y012478D01*
X059925Y012429D01*
X059880Y012378D01*
X059837Y012324D01*
X059798Y012267D01*
X059761Y012209D01*
X059728Y012149D01*
X059699Y012086D01*
X059673Y012023D01*
X059651Y011957D01*
X059633Y011891D01*
X059618Y011824D01*
X059607Y011756D01*
X059600Y011687D01*
X059597Y011619D01*
X059598Y011550D01*
X059603Y011481D01*
X059611Y011413D01*
X059624Y011345D01*
X059640Y011279D01*
X059660Y011213D01*
X059684Y011148D01*
X059711Y011085D01*
X059742Y011024D01*
X059776Y010964D01*
X059814Y010906D01*
X059855Y010851D01*
X059899Y010798D01*
X059946Y010748D01*
X059995Y010700D01*
X060047Y010655D01*
X060102Y010613D01*
X060159Y010575D01*
X060218Y010540D01*
X060279Y010508D01*
X060342Y010479D01*
X060406Y010455D01*
X060472Y010433D01*
X060538Y010416D01*
X060606Y010403D01*
X060674Y010393D01*
X060742Y010387D01*
X060811Y010385D01*
X060880Y010387D01*
X060948Y010393D01*
X061016Y010403D01*
X061084Y010416D01*
X061150Y010433D01*
X061216Y010455D01*
X061280Y010479D01*
X061343Y010508D01*
X061404Y010540D01*
X061463Y010575D01*
X061520Y010613D01*
X061575Y010655D01*
X061627Y010700D01*
X061676Y010748D01*
X061723Y010798D01*
X061767Y010851D01*
X061808Y010906D01*
X061846Y010964D01*
X061880Y011024D01*
X061911Y011085D01*
X061938Y011148D01*
X061962Y011213D01*
X061982Y011279D01*
X061998Y011345D01*
X062011Y011413D01*
X062019Y011481D01*
X062024Y011550D01*
X062025Y011619D01*
X062022Y011687D01*
X062015Y011756D01*
X062004Y011824D01*
X061989Y011891D01*
X061971Y011957D01*
X061949Y012023D01*
X061923Y012086D01*
X061894Y012149D01*
X061861Y012209D01*
X061824Y012267D01*
X061785Y012324D01*
X061742Y012378D01*
X061697Y012429D01*
X061648Y012478D01*
X061597Y012524D01*
X061543Y012567D01*
X041781Y014390D02*
X041781Y014440D01*
X041756Y014465D01*
X041756Y014512D02*
X041781Y014537D01*
X041781Y014587D01*
X041756Y014612D01*
X041731Y014612D01*
X041706Y014587D01*
X041706Y014512D01*
X041756Y014512D01*
X041706Y014512D02*
X041656Y014562D01*
X041631Y014612D01*
X041656Y014465D02*
X041631Y014440D01*
X041631Y014390D01*
X041656Y014365D01*
X041756Y014365D01*
X041781Y014390D01*
X041756Y024601D02*
X041781Y024626D01*
X041781Y024676D01*
X041756Y024701D01*
X041756Y024749D02*
X041781Y024774D01*
X041781Y024824D01*
X041756Y024849D01*
X041706Y024849D01*
X041681Y024824D01*
X041681Y024799D01*
X041706Y024749D01*
X041631Y024749D01*
X041631Y024849D01*
X041656Y024701D02*
X041631Y024676D01*
X041631Y024626D01*
X041656Y024601D01*
X041756Y024601D01*
X002720Y017404D02*
X002720Y017304D01*
X002720Y017354D02*
X002570Y017354D01*
X002620Y017304D01*
X002645Y017257D02*
X002670Y017232D01*
X002670Y017157D01*
X002720Y017157D02*
X002570Y017157D01*
X002570Y017232D01*
X002595Y017257D01*
X002645Y017257D01*
X002570Y017109D02*
X002570Y017059D01*
X002570Y017084D02*
X002695Y017084D01*
X002720Y017059D01*
X002720Y017034D01*
X002695Y017009D01*
D22*
X028181Y014469D02*
X028181Y014319D01*
X028256Y014244D01*
X028256Y014084D02*
X028331Y014084D01*
X028406Y014009D01*
X028406Y013783D01*
X028181Y013783D02*
X028181Y014009D01*
X028256Y014084D01*
X028406Y014009D02*
X028481Y014084D01*
X028556Y014084D01*
X028631Y014009D01*
X028631Y013783D01*
X028181Y013783D01*
X028631Y014244D02*
X028331Y014544D01*
X028256Y014544D01*
X028181Y014469D01*
X028631Y014544D02*
X028631Y014244D01*
X028631Y023626D02*
X028181Y023626D01*
X028181Y023851D01*
X028256Y023926D01*
X028331Y023926D01*
X028406Y023851D01*
X028406Y023626D01*
X028406Y023851D02*
X028481Y023926D01*
X028556Y023926D01*
X028631Y023851D01*
X028631Y023626D01*
X028631Y024086D02*
X028631Y024386D01*
X028631Y024236D02*
X028181Y024236D01*
X028331Y024086D01*
X055243Y022293D02*
X055243Y022143D01*
X055318Y022068D01*
X055318Y021908D02*
X055243Y021833D01*
X055243Y021683D01*
X055318Y021608D01*
X055618Y021608D01*
X055693Y021683D01*
X055693Y021833D01*
X055618Y021908D01*
X055618Y022068D02*
X055693Y022143D01*
X055693Y022293D01*
X055618Y022368D01*
X055543Y022368D01*
X055468Y022293D01*
X055468Y022218D01*
X055468Y022293D02*
X055393Y022368D01*
X055318Y022368D01*
X055243Y022293D01*
X058286Y029226D02*
X058286Y029451D01*
X058361Y029526D01*
X058512Y029526D01*
X058587Y029451D01*
X058587Y029226D01*
X058737Y029226D02*
X058286Y029226D01*
X058587Y029376D02*
X058737Y029526D01*
X058737Y029686D02*
X058737Y029986D01*
X058737Y029836D02*
X058286Y029836D01*
X058436Y029686D01*
X059732Y029803D02*
X060183Y029803D01*
X060183Y030103D01*
X060183Y030263D02*
X059732Y030263D01*
X059732Y030563D01*
X059732Y030724D02*
X059732Y030949D01*
X059807Y031024D01*
X060108Y031024D01*
X060183Y030949D01*
X060183Y030724D01*
X059732Y030724D01*
X059957Y030413D02*
X059957Y030263D01*
X060183Y030263D02*
X060183Y030563D01*
X060183Y031184D02*
X060183Y031484D01*
X060183Y031334D02*
X059732Y031334D01*
X059882Y031184D01*
X060201Y014555D02*
X060126Y014480D01*
X060126Y014330D01*
X060201Y014255D01*
X060201Y014095D02*
X060126Y014020D01*
X060126Y013794D01*
X060576Y013794D01*
X060576Y014020D01*
X060501Y014095D01*
X060201Y014095D01*
X060576Y014255D02*
X060276Y014555D01*
X060201Y014555D01*
X060576Y014555D02*
X060576Y014255D01*
X060576Y013634D02*
X060576Y013334D01*
X060126Y013334D01*
X060126Y013634D01*
X060351Y013484D02*
X060351Y013334D01*
X060576Y013174D02*
X060576Y012874D01*
X060126Y012874D01*
X057430Y011184D02*
X057430Y010884D01*
X057130Y011184D01*
X057055Y011184D01*
X056980Y011109D01*
X056980Y010959D01*
X057055Y010884D01*
X057055Y010724D02*
X057205Y010724D01*
X057280Y010649D01*
X057280Y010424D01*
X057280Y010574D02*
X057430Y010724D01*
X057430Y010424D02*
X056980Y010424D01*
X056980Y010649D01*
X057055Y010724D01*
X055618Y013340D02*
X055693Y013415D01*
X055693Y013565D01*
X055618Y013640D01*
X055468Y013800D02*
X055468Y014101D01*
X055243Y014026D02*
X055468Y013800D01*
X055318Y013640D02*
X055243Y013565D01*
X055243Y013415D01*
X055318Y013340D01*
X055618Y013340D01*
X055693Y014026D02*
X055243Y014026D01*
D23*
X036402Y014523D03*
X036402Y024366D03*
D24*
X057662Y027502D03*
X057662Y030342D03*
X058055Y013019D03*
X058055Y010179D03*
D25*
X047638Y010706D03*
X046638Y010706D03*
X045638Y010706D03*
X045638Y028240D03*
X046638Y028240D03*
X047638Y028240D03*
D26*
X047638Y028915D03*
X046638Y028915D03*
X045638Y028915D03*
X045638Y010031D03*
X046638Y010031D03*
X047638Y010031D03*
D27*
X016236Y019866D03*
D28*
X017986Y017366D03*
X017986Y022366D03*
M02*
